<?xml version="1.0" encoding="UTF-8"?>
<!DOCTYPE svg  PUBLIC '-//W3C//DTD SVG 1.1//EN'  'http://www.w3.org/Graphics/SVG/1.1/DTD/svg11.dtd'>
<svg version="1.1" id="Layer_1" xmlns="http://www.w3.org/2000/svg" xmlns:xlink="http://www.w3.org/1999/xlink" x="0px" y="0px"
	 width="516px" height="114px" viewBox="0 0 516 114" enable-background="new 0 0 516 114" xml:space="preserve">
<path fill="#4B4B4B" d="M136.1,61.5c0-0.8-0.399-1.4-1.2-1.9c-0.8-0.5-2.3-0.899-4.6-1.399s-4.1-1.2-5.6-2c-1.5-0.8-2.601-1.8-3.4-3
	c-0.8-1.2-1.2-2.5-1.2-4c0-2.7,1.101-4.9,3.3-6.6C125.6,40.9,128.5,40,132,40c3.8,0,6.899,0.9,9.2,2.6c2.3,1.7,3.5,4,3.5,6.8H135.6
	c0-2.3-1.2-3.5-3.7-3.5c-0.899,0-1.699,0.3-2.399,0.8c-0.601,0.5-1,1.2-1,2c0,0.8,0.399,1.5,1.2,2c0.8,0.5,2,0.9,3.8,1.2
	c1.7,0.3,3.2,0.7,4.6,1.2c4.4,1.5,6.601,4.2,6.601,8.1c0,2.6-1.2,4.8-3.5,6.5c-2.4,1.7-5.4,2.5-9.101,2.5c-2.5,0-4.7-0.4-6.7-1.3
	c-2-0.9-3.5-2.101-4.6-3.601s-1.6-3.1-1.6-4.8h8.5c0,1.3,0.5,2.3,1.3,2.9c0.899,0.6,2,0.899,3.3,0.899c1.2,0,2.2-0.2,2.8-0.8
	C135.8,63,136.1,62.3,136.1,61.5z"/>
<path fill="#4B4B4B" d="M160.6,33.4v7.2h4.8v6.3h-4.8v13.3c0,1.1,0.2,1.899,0.601,2.3c0.399,0.4,1.199,0.6,2.3,0.6
	c0.899,0,1.6-0.1,2.3-0.199v6.5c-1.6,0.5-3.3,0.8-5.1,0.8c-3.101,0-5.4-0.7-6.9-2.2s-2.2-3.7-2.2-6.7V46.9h-3.7v-6.3h3.7v-7.2H160.6
	z"/>
<path fill="#4B4B4B" d="M182.6,57l4.8-16.4h9.7l-11.8,33.9l-0.5,1.2c-1.7,3.8-4.7,5.6-8.9,5.6c-1.199,0-2.399-0.2-3.699-0.5v-6.3
	h1.199c1.301,0,2.2-0.2,2.9-0.6c0.7-0.4,1.2-1,1.5-2l0.7-1.9L168.4,40.7h9.7L182.6,57z"/>
<path fill="#4B4B4B" d="M209,69.7H199.9V28.5H209V69.7z"/>
<path fill="#4B4B4B" d="M226.9,70.2c-4.5,0-8.1-1.3-10.8-4c-2.8-2.7-4.1-6.101-4.1-10.4V55c0-3,0.6-5.6,1.6-7.9
	c1.101-2.3,2.7-4,4.8-5.3c2.101-1.2,4.601-1.9,7.5-1.9c4.101,0,7.301,1.3,9.7,3.8c2.4,2.5,3.5,6.1,3.5,10.6v3.5h-18
	c0.3,1.601,1,2.9,2.101,3.8c1.1,0.9,2.5,1.4,4.199,1.4c2.9,0,5.101-1,6.7-3l4.101,4.9c-1.101,1.6-2.7,2.8-4.801,3.699
	C231.5,69.8,229.2,70.2,226.9,70.2z M225.8,47.1c-2.6,0-4.2,1.8-4.7,5.3h9.101v-0.7c0-1.4-0.301-2.6-1.101-3.4
	C228.4,47.5,227.3,47.1,225.8,47.1z"/>
<path fill="#4B4B4B" d="M261.6,55.7h-17v-7h17V55.7z"/>
<path fill="#4B4B4B" d="M266.2,33.1c0-1.3,0.5-2.3,1.399-3.2c0.9-0.8,2.101-1.2,3.601-1.2s2.699,0.4,3.6,1.2
	c0.9,0.8,1.4,1.9,1.4,3.2c0,1.3-0.5,2.3-1.4,3.2c-0.9,0.8-2.1,1.2-3.6,1.2s-2.7-0.4-3.601-1.2C266.6,35.5,266.2,34.4,266.2,33.1z
	 M275.8,69.7h-9.1V40.6h9.1V69.7z"/>
<path fill="#4B4B4B" d="M291.6,33.4v7.2h4.8v6.3h-4.8v13.3c0,1.1,0.2,1.899,0.601,2.3c0.399,0.4,1.199,0.6,2.3,0.6
	c0.899,0,1.6-0.1,2.3-0.199v6.5c-1.6,0.5-3.3,0.8-5.1,0.8c-3.101,0-5.4-0.7-6.9-2.2s-2.2-3.7-2.2-6.7V46.9h-3.7v-6.3h3.7v-7.2H291.6
	L291.6,33.4z"/>
<path fill="#6593D9" d="M334.199,33.8V41H339v6.3h-4.801v13.3c0,1.101,0.2,1.9,0.601,2.301c0.399,0.399,1.2,0.6,2.3,0.6
	c0.9,0,1.6-0.1,2.3-0.2v6.5c-1.6,0.5-3.3,0.8-5.1,0.8c-3.101,0-5.4-0.699-6.9-2.199s-2.2-3.7-2.2-6.7V47.3h-3.7V41h3.7v-7.2H334.199
	z"/>
<path fill="#6593D9" d="M351.5,44.1c1.899-2.4,4.399-3.7,7.399-3.7c3.2,0,5.601,0.9,7.3,2.9c1.601,1.9,2.5,4.7,2.5,8.4V70h-9.1V52
	c0-1.5-0.3-2.7-0.9-3.4c-0.6-0.7-1.7-1.1-3.2-1.1c-1.899,0-3.199,0.6-3.899,1.8v20.8h-9.101V28.8h9.101L351.5,44.1L351.5,44.1z"/>
<path fill="#6593D9" d="M386.6,70.6c-4.5,0-8.1-1.3-10.8-4c-2.8-2.699-4.101-6.1-4.101-10.399v-0.8c0-3,0.601-5.6,1.601-7.9
	c1.1-2.3,2.7-4,4.8-5.3c2.1-1.2,4.6-1.9,7.5-1.9c4.1,0,7.3,1.3,9.7,3.8c2.399,2.5,3.5,6.1,3.5,10.6v3.5h-18c0.3,1.6,1,2.899,2.1,3.8
	c1.101,0.9,2.5,1.4,4.2,1.4c2.9,0,5.1-1,6.7-3l4.1,4.899c-1.1,1.601-2.7,2.8-4.8,3.7C391.199,70.2,389,70.6,386.6,70.6z M385.6,47.5
	c-2.6,0-4.2,1.8-4.7,5.3H390v-0.7c0-1.4-0.301-2.6-1.101-3.4C388.1,47.9,387,47.5,385.6,47.5L385.6,47.5z"/>
<path fill="#6593D9" d="M410.3,41l0.3,3.4c2.1-2.6,4.8-3.9,8.3-3.9c3.7,0,6.1,1.5,7.4,4.4c2-2.9,4.8-4.4,8.5-4.4
	c5.899,0,8.899,3.6,9.1,10.7V70.1h-9.1V51.8c0-1.5-0.301-2.6-0.801-3.2c-0.5-0.7-1.399-1-2.699-1c-1.801,0-3.101,0.8-4,2.4v0.4v19.7
	h-9.101V51.8c0-1.5-0.2-2.6-0.7-3.3s-1.399-1-2.8-1c-1.7,0-3.1,0.8-4,2.4v20.2h-9.1V41H410.3z"/>
<path fill="#6593D9" d="M461.9,70.6c-4.5,0-8.1-1.3-10.8-4C448.3,63.9,447,60.5,447,56.2v-0.8c0-3,0.6-5.6,1.699-7.9
	c1.101-2.3,2.7-4,4.801-5.3c2.1-1.2,4.6-1.9,7.5-1.9c4.1,0,7.3,1.3,9.699,3.8c2.4,2.5,3.5,6.1,3.5,10.6v3.5h-18
	c0.301,1.6,1,2.899,2.101,3.8c1.1,0.9,2.5,1.4,4.2,1.4c2.899,0,5.1-1,6.699-3L473.3,65.3c-1.101,1.601-2.7,2.8-4.8,3.7
	C466.5,70.2,464.3,70.6,461.9,70.6L461.9,70.6z M460.9,47.5c-2.6,0-4.2,1.8-4.7,5.3h9.101v-0.7c0-1.4-0.3-2.6-1.101-3.4
	C463.4,47.9,462.3,47.5,460.9,47.5L460.9,47.5z"/>
<path fill="#6593D9" d="M494,61.9c0-0.801-0.4-1.4-1.2-1.9s-2.3-0.9-4.601-1.4c-2.3-0.5-4.1-1.2-5.6-2c-1.5-0.8-2.601-1.8-3.4-3
	c-0.8-1.2-1.2-2.5-1.2-4c0-2.7,1.101-4.9,3.301-6.6c2.199-1.7,5.1-2.6,8.6-2.6c3.8,0,6.9,0.9,9.2,2.6s3.5,4,3.5,6.8h-9.101
	c0-2.3-1.199-3.5-3.699-3.5c-0.9,0-1.7,0.3-2.4,0.8c-0.6,0.5-1,1.2-1,2c0,0.8,0.4,1.5,1.2,2s2,0.9,3.8,1.2c1.7,0.3,3.2,0.7,4.6,1.2
	c4.4,1.5,6.601,4.2,6.601,8.1c0,2.7-1.2,4.801-3.5,6.5c-2.4,1.7-5.4,2.5-9.101,2.5c-2.5,0-4.699-0.399-6.699-1.3
	c-2-0.899-3.5-2.1-4.601-3.6c-1.1-1.5-1.6-3.2-1.6-4.9h8.5c0,1.3,0.5,2.3,1.3,2.9c0.9,0.6,2,0.899,3.3,0.899
	c1.2,0,2.2-0.199,2.8-0.8C493.699,63.4,494,62.7,494,61.9L494,61.9z"/>
<path fill="#CCCCCC" d="M198.2,94.8c0-0.3-0.101-0.5-0.301-0.7c-0.199-0.199-0.6-0.3-1.1-0.5c-0.5-0.199-1-0.399-1.3-0.5
	c-1.101-0.5-1.7-1.3-1.7-2.199c0-0.5,0.1-0.9,0.4-1.2c0.3-0.4,0.699-0.601,1.199-0.8c0.5-0.2,1.101-0.301,1.7-0.301
	c0.601,0,1.2,0.101,1.601,0.301c0.5,0.199,0.899,0.5,1.1,0.899c0.3,0.4,0.4,0.9,0.4,1.4H198.1c0-0.3-0.1-0.601-0.3-0.8
	c-0.2-0.2-0.5-0.301-0.9-0.301c-0.399,0-0.699,0.101-0.899,0.2c-0.2,0.2-0.3,0.4-0.3,0.601c0,0.199,0.1,0.399,0.399,0.6
	c0.2,0.2,0.601,0.4,1.2,0.6c0.6,0.2,1.1,0.4,1.5,0.601c0.9,0.5,1.4,1.3,1.4,2.2c0,0.699-0.301,1.3-0.801,1.8
	c-0.6,0.399-1.3,0.6-2.3,0.6c-0.7,0-1.3-0.1-1.899-0.399c-0.601-0.2-1-0.601-1.301-1c-0.3-0.4-0.399-0.9-0.399-1.5h2.1
	c0,0.5,0.101,0.8,0.4,1c0.2,0.199,0.6,0.3,1.2,0.3c0.3,0,0.6-0.101,0.8-0.2C198.1,95.3,198.2,95.1,198.2,94.8L198.2,94.8z"/>
<path fill="#CCCCCC" d="M209.1,95.5h-2.8l-0.5,1.6h-2.2l3.101-8.5h1.899l3.101,8.5h-2.2L209.1,95.5L209.1,95.5z M206.8,93.9h1.8
	l-0.899-3L206.8,93.9z"/>
<path fill="#CCCCCC" d="M218.8,94.8l1.7-6.2h2.3l-2.9,8.5H217.7l-2.801-8.5h2.301L218.8,94.8z"/>
<path fill="#CCCCCC" d="M231.7,93.5h-3.2v2h3.8v1.6h-5.9v-8.5h5.9V90.2h-3.8V92h3.2V93.5z"/>
<path fill="#CCCCCC" d="M245.2,92.3l1.6-3.7h2.2l-2.7,5.5V97.2h-2.1V94.1l-2.7-5.5h2.2L245.2,92.3z"/>
<path fill="#CCCCCC" d="M259.8,93c0,0.8-0.2,1.6-0.5,2.2c-0.3,0.6-0.7,1.1-1.3,1.5c-0.601,0.3-1.2,0.5-1.9,0.5S254.7,97,254.2,96.7
	c-0.601-0.3-1-0.8-1.301-1.4c-0.3-0.6-0.5-1.3-0.5-2.1v-0.5c0-0.8,0.2-1.601,0.5-2.2c0.301-0.6,0.7-1.1,1.301-1.5
	c0.6-0.3,1.199-0.5,2-0.5c0.699,0,1.399,0.2,1.899,0.5c0.601,0.3,1,0.8,1.3,1.5c0.301,0.6,0.5,1.4,0.5,2.2L259.8,93z M257.7,92.7
	c0-0.8-0.101-1.5-0.4-1.9c-0.3-0.399-0.7-0.7-1.2-0.7c-1,0-1.6,0.801-1.6,2.301V93c0,0.8,0.1,1.5,0.399,1.9
	c0.301,0.399,0.7,0.699,1.2,0.699s0.9-0.199,1.2-0.699c0.3-0.4,0.4-1.101,0.4-1.9V92.7L257.7,92.7z"/>
<path fill="#CCCCCC" d="M270.5,88.6V94.2c0,0.6-0.101,1.2-0.4,1.6c-0.3,0.5-0.7,0.8-1.2,1.101c-0.5,0.199-1.1,0.399-1.8,0.399
	c-1,0-1.899-0.3-2.5-0.8c-0.6-0.5-0.899-1.3-0.899-2.2v-5.6h2.1v5.7c0,0.899,0.5,1.399,1.3,1.399c0.4,0,0.7-0.1,1-0.399
	c0.2-0.2,0.3-0.601,0.3-1.101v-5.6L270.5,88.6L270.5,88.6z"/>
<path fill="#CCCCCC" d="M278,94.1H276.9v3h-2.1v-8.5h3.4c1,0,1.8,0.2,2.399,0.7c0.601,0.4,0.9,1.101,0.9,1.9
	c0,0.6-0.101,1.1-0.4,1.5c-0.2,0.399-0.6,0.7-1.1,0.899l1.8,3.4v0.1h-2.2L278,94.1L278,94.1z M276.9,92.5h1.301
	c0.399,0,0.699-0.1,0.899-0.3s0.3-0.5,0.3-0.9c0-0.399-0.1-0.7-0.3-0.899c-0.2-0.2-0.5-0.301-0.899-0.301H276.9V92.5L276.9,92.5z"/>
<path fill="#CCCCCC" d="M294.8,94.1h-1.101v3h-2.1v-8.5h3.399c1,0,1.801,0.2,2.4,0.7c0.6,0.4,0.9,1.101,0.9,1.9
	c0,0.6-0.101,1.1-0.4,1.5c-0.2,0.399-0.6,0.7-1.1,0.899l1.8,3.4v0.1h-2.2L294.8,94.1L294.8,94.1z M293.699,92.5H295
	c0.399,0,0.699-0.1,0.899-0.3s0.3-0.5,0.3-0.9c0-0.399-0.1-0.7-0.3-0.899c-0.2-0.2-0.5-0.301-0.899-0.301h-1.301V92.5L293.699,92.5z
	"/>
<path fill="#CCCCCC" d="M307.699,93.5H304.5v2h3.8v1.6h-5.9v-8.5h5.9V90.2h-3.8V92h3.199V93.5z"/>
<path fill="#CCCCCC" d="M318.5,90.2H315.9V97.1h-2.1V90.2h-2.5V88.6h7.1L318.5,90.2z"/>
<path fill="#CCCCCC" d="M324.199,97.1h-2.1v-8.5h2.1V97.1z"/>
<path fill="#CCCCCC" d="M335.699,97.1h-2l-3-5.3v5.3h-2.1v-8.5h2.1l3,5.301V88.6h2.101L335.699,97.1L335.699,97.1z"/>
<path fill="#CCCCCC" d="M344.8,95.5H342l-0.5,1.6h-2.2l3.1-8.5h1.9l3.2,8.5h-2.2L344.8,95.5L344.8,95.5z M342.5,93.9h1.8l-0.9-3
	L342.5,93.9z"/>
<path fill="#CCCCCC" d="M355.6,94.8c0-0.3-0.1-0.5-0.3-0.7c-0.2-0.199-0.601-0.3-1.101-0.5c-0.5-0.199-1-0.399-1.3-0.5
	c-1.1-0.5-1.7-1.3-1.7-2.199c0-0.5,0.101-0.9,0.4-1.2c0.3-0.4,0.7-0.601,1.2-0.8c0.5-0.2,1.1-0.301,1.7-0.301
	c0.6,0,1.199,0.101,1.6,0.301c0.5,0.199,0.9,0.5,1.1,0.899c0.301,0.4,0.4,0.9,0.4,1.4h-2.1c0-0.3-0.101-0.601-0.301-0.8
	c-0.199-0.2-0.5-0.301-0.899-0.301c-0.4,0-0.7,0.101-0.9,0.2c-0.2,0.2-0.3,0.4-0.3,0.601c0,0.199,0.1,0.399,0.4,0.6
	c0.199,0.2,0.6,0.4,1.199,0.6c0.601,0.2,1.101,0.4,1.5,0.601c0.9,0.5,1.4,1.3,1.4,2.2c0,0.699-0.3,1.3-0.8,1.8
	c-0.601,0.399-1.3,0.6-2.3,0.6c-0.7,0-1.301-0.1-1.9-0.399c-0.6-0.2-1-0.601-1.3-1c-0.3-0.4-0.4-0.9-0.4-1.5H353
	c0,0.5,0.1,0.8,0.399,1c0.3,0.199,0.601,0.3,1.2,0.3c0.3,0,0.6-0.101,0.8-0.2C355.5,95.3,355.6,95.1,355.6,94.8L355.6,94.8z"/>
<path fill="#CCCCCC" d="M373,93.7h-3.301V97.1h-2.1v-8.5h5.7V90.2h-3.601v2H373V93.7z"/>
<path fill="#CCCCCC" d="M380.4,94.1h-1.1v3h-2.101v-8.5h3.4c1,0,1.8,0.2,2.399,0.7c0.601,0.4,0.9,1.101,0.9,1.9
	c0,0.6-0.1,1.1-0.4,1.5c-0.199,0.399-0.6,0.7-1.1,0.899l1.8,3.4v0.1h-2.2L380.4,94.1L380.4,94.1z M379.3,92.5h1.3
	c0.399,0,0.7-0.1,0.899-0.3c0.2-0.2,0.301-0.5,0.301-0.9c0-0.399-0.101-0.7-0.301-0.899c-0.199-0.2-0.5-0.301-0.899-0.301h-1.3V92.5
	L379.3,92.5z"/>
<path fill="#CCCCCC" d="M395.199,93c0,0.8-0.199,1.6-0.5,2.2c-0.3,0.6-0.699,1.1-1.3,1.5c-0.6,0.3-1.2,0.5-1.899,0.5
	c-0.7,0-1.4-0.2-1.9-0.5c-0.6-0.3-1-0.8-1.3-1.4c-0.3-0.6-0.5-1.3-0.5-2.1v-0.5c0-0.8,0.2-1.601,0.5-2.2s0.7-1.1,1.3-1.5
	c0.6-0.3,1.2-0.5,2-0.5c0.7,0,1.4,0.2,1.9,0.5c0.6,0.3,1,0.8,1.3,1.5c0.3,0.6,0.5,1.4,0.5,2.2L395.199,93z M393.1,92.7
	c0-0.8-0.1-1.5-0.4-1.9c-0.3-0.399-0.699-0.7-1.199-0.7c-1,0-1.601,0.801-1.601,2.301V93c0,0.8,0.101,1.5,0.4,1.9
	c0.3,0.399,0.7,0.699,1.2,0.699s0.899-0.199,1.199-0.699c0.301-0.4,0.4-1.101,0.4-1.9V92.7z"/>
<path fill="#CCCCCC" d="M402,88.6l1.899,5.9l1.9-5.9h2.7v8.5H406.4v-2l0.2-4.1l-2.1,6.1h-1.4L401,91l0.199,4.1v2h-2.1v-8.5H402
	L402,88.6z"/>
<path fill="#CCCCCC" d="M425.1,90.2h-2.6V97.1H420.4V90.2h-2.5V88.6H425L425.1,90.2z"/>
<path fill="#CCCCCC" d="M435.699,97.1h-2v-3.6h-3v3.6h-2.1v-8.5h2.1V92h3v-3.4h2V97.1L435.699,97.1z"/>
<path fill="#CCCCCC" d="M445.3,93.5h-3.2v2h3.8v1.6h-5.9v-8.5h5.9V90.2h-3.8V92h3.2V93.5L445.3,93.5z"/>
<path fill="#CCCCCC" d="M455.699,97.1v-8.5h3.101c1.1,0,1.899,0.2,2.5,0.601c0.6,0.399,0.899,1,0.899,1.8c0,0.4-0.1,0.8-0.3,1.1
	c-0.2,0.301-0.5,0.5-0.899,0.7c0.399,0.101,0.8,0.3,1,0.7c0.199,0.3,0.399,0.7,0.399,1.2c0,0.8-0.3,1.5-0.8,1.899
	c-0.5,0.4-1.3,0.601-2.4,0.601h-3.5V97.1z M457.8,92.1h1.1c0.4,0,0.8-0.1,1-0.199c0.2-0.2,0.3-0.4,0.3-0.7c0-0.4-0.1-0.601-0.3-0.8
	c-0.2-0.2-0.5-0.2-1-0.2h-1L457.8,92.1L457.8,92.1z M457.8,93.5v2h1.3c0.399,0,0.7-0.1,0.899-0.3c0.2-0.2,0.301-0.4,0.301-0.7
	c0-0.7-0.4-1.1-1.101-1.1H457.8V93.5z"/>
<path fill="#CCCCCC" d="M473.1,88.6V94.2c0,0.6-0.1,1.2-0.4,1.6c-0.3,0.5-0.699,0.8-1.199,1.101C471,97.1,470.4,97.3,469.699,97.3
	c-1,0-1.899-0.3-2.5-0.8c-0.6-0.5-0.899-1.3-0.899-2.2v-5.6h2.1v5.7c0,0.899,0.5,1.399,1.3,1.399c0.4,0,0.7-0.1,1-0.399
	C470.9,95.2,471,94.8,471,94.3v-5.6L473.1,88.6z"/>
<path fill="#CCCCCC" d="M480.6,94.1h-1.1v3H477.4v-8.5h3.4c1,0,1.8,0.2,2.399,0.7c0.601,0.4,0.9,1.101,0.9,1.9
	c0,0.6-0.101,1.1-0.4,1.5c-0.2,0.399-0.6,0.7-1.1,0.899l1.8,3.4v0.1h-2.2L480.6,94.1L480.6,94.1z M479.5,92.5h1.3
	c0.399,0,0.7-0.1,0.899-0.3c0.2-0.2,0.3-0.5,0.3-0.9c0-0.399-0.1-0.7-0.3-0.899c-0.2-0.2-0.5-0.301-0.899-0.301h-1.3V92.5
	L479.5,92.5z"/>
<path fill="#CCCCCC" d="M495.3,97.1h-2l-3-5.3v5.3h-2.101v-8.5h2.101l3,5.301V88.6h2.1L495.3,97.1L495.3,97.1z"/>
<path fill="#CCCCCC" d="M500.6,96.2c0-0.3,0.1-0.5,0.3-0.7s0.5-0.3,0.8-0.3s0.601,0.1,0.8,0.3c0.2,0.2,0.301,0.4,0.301,0.7
	s-0.101,0.5-0.301,0.7c-0.199,0.199-0.5,0.3-0.8,0.3s-0.6-0.101-0.8-0.3C500.699,96.7,500.6,96.5,500.6,96.2z M502.5,94.4H500.9
	l-0.3-5.801h2.1L502.5,94.4z"/>
<rect x="7.8" y="5.9" display="none" fill="#555753" width="101.5" height="101.5"/>
<g opacity="0.4">
	<polygon points="41.3,74.9 67.4,33.7 72.4,39.7 47.3,81.9 	"/>
	<polygon points="43.9,29 19,58.2 43.9,86.3 39.6,93.4 11.7,58.2 39.3,22 	"/>
	<polygon points="74.5,22 102.1,58.2 74.3,93.4 70,86.3 94.9,58.2 70,29 	"/>
</g>
<polygon fill="#4B4B4B" points="43.3,73.9 69.4,32.7 74.4,38.7 49.3,80.9 "/>
<polygon fill="#4B4B4B" points="45.9,28 21,57.2 45.9,85.3 41.6,92.4 13.7,57.2 41.4,21 "/>
<polygon fill="#4B4B4B" points="76.5,21 104.2,57.2 76.3,92.4 72,85.3 96.9,57.2 72,28 "/>
</svg>
