<?xml version="1.0" encoding="UTF-8"?>
<!DOCTYPE svg  PUBLIC '-//W3C//DTD SVG 1.1//EN'  'http://www.w3.org/Graphics/SVG/1.1/DTD/svg11.dtd'>
<svg width="106px" height="106px" enable-background="new 7.878 0.93 106 106" version="1.1" viewBox="7.878 0.93 106 106" xml:space="preserve" xmlns="http://www.w3.org/2000/svg">
<rect x="10.341" y="3.394" width="101" height="101" fill="#555753"/>
	<g fill="#2E3436" opacity=".3">
		<polygon points="43.341 72.394 69.341 31.394 74.341 37.394 49.341 79.394"/>
		<polygon points="46.341 26.394 21.544 55.394 46.341 83.394 42.095 90.394 14.341 55.394 41.834 19.394"/>
		<polygon points="75.848 19.394 103.34 55.394 75.586 90.394 71.341 83.394 96.137 55.394 71.341 26.394"/>
	</g>
		<g fill="#EEEEEC">
			<polygon points="45.341 71.394 71.341 30.394 76.341 36.394 51.341 78.394"/>
			<polygon points="48.341 25.394 23.544 54.394 48.341 82.394 44.095 89.394 16.341 54.394 43.834 18.394"/>
			<polygon points="77.848 18.394 105.34 54.394 77.586 89.394 73.341 82.394 98.137 54.394 73.341 25.394"/>
		</g>
</svg>
