<?xml version="1.0" encoding="UTF-8"?>
<!DOCTYPE svg  PUBLIC '-//W3C//DTD SVG 1.1//EN'  'http://www.w3.org/Graphics/SVG/1.1/DTD/svg11.dtd'>
<svg width="509.59px" height="107.86px" enable-background="new 0 0 509.59 107.859" version="1.1" viewBox="0 0 509.59 107.859" xml:space="preserve" xmlns="http://www.w3.org/2000/svg">
<text transform="translate(199.62 427.19)" display="none" enable-background="new    " font-family="'Mistral'" font-size="300">it</text>
<path d="m137.95 61.274c0-0.771-0.403-1.388-1.208-1.854-0.807-0.465-2.337-0.949-4.593-1.45s-4.117-1.158-5.586-1.974c-1.468-0.814-2.587-1.803-3.356-2.967-0.771-1.164-1.155-2.498-1.155-4.001 0-2.667 1.101-4.865 3.303-6.593 2.202-1.729 5.084-2.593 8.647-2.593 3.831 0 6.911 0.869 9.238 2.605 2.326 1.737 3.49 4.02 3.49 6.848h-9.077c0-2.327-1.227-3.491-3.679-3.491-0.949 0-1.746 0.265-2.39 0.792-0.646 0.528-0.967 1.188-0.967 1.975 0 0.806 0.394 1.459 1.182 1.96s2.045 0.913 3.773 1.234c1.728 0.322 3.244 0.708 4.552 1.155 4.368 1.504 6.553 4.199 6.553 8.083 0 2.65-1.177 4.808-3.531 6.473-2.354 1.664-5.402 2.497-9.145 2.497-2.489 0-4.709-0.447-6.66-1.343-1.952-0.895-3.474-2.111-4.565-3.651s-1.638-3.092-1.638-4.792h8.459c0.036 1.343 0.483 2.254 1.343 2.872 0.859 0.616 1.96 0.926 3.304 0.926 1.234 0 2.161-0.25 2.779-0.752 0.618-0.499 0.927-1.154 0.927-1.959z" fill="#D3D7CF"/>
<path d="m161.45 33.156v7.224h4.779v6.284h-4.779v13.293c0 1.092 0.196 1.854 0.591 2.283 0.394 0.43 1.172 0.645 2.336 0.645 0.895 0 1.646-0.054 2.256-0.161v6.473c-1.629 0.519-3.33 0.778-5.104 0.778-3.114 0-5.416-0.733-6.901-2.201-1.486-1.469-2.229-3.697-2.229-6.688v-14.422h-3.706v-6.284h3.706v-7.224h9.051z" fill="#D3D7CF"/>
<path d="m181.4 56.762l4.834-16.382h9.695l-11.843 33.918-0.51 1.235c-1.684 3.76-4.655 5.64-8.916 5.64-1.183 0-2.427-0.178-3.733-0.535v-6.446h1.182c1.271 0 2.243-0.185 2.914-0.552 0.672-0.367 1.168-1.025 1.491-1.976l0.725-1.935-10.099-29.349h9.668l4.592 16.382z" fill="#D3D7CF"/>
<path d="m207.83 69.439h-9.077v-41.25h9.077v41.25z" fill="#D3D7CF"/>
<path d="m227.46 69.975c-4.458 0-8.066-1.328-10.823-3.987-2.757-2.658-4.136-6.118-4.136-10.379v-0.752c0-2.973 0.55-5.596 1.651-7.869s2.708-4.033 4.82-5.277 4.619-1.866 7.521-1.866c4.082 0 7.305 1.268 9.668 3.801 2.362 2.533 3.545 6.064 3.545 10.595v3.518h-17.993c0.322 1.629 1.029 2.91 2.122 3.84 1.092 0.932 2.506 1.396 4.243 1.396 2.863 0 5.103-1.002 6.714-3.008l4.136 4.888c-1.128 1.558-2.726 2.797-4.793 3.72-2.069 0.919-4.294 1.38-6.675 1.38zm-1.02-23.15c-2.649 0-4.226 1.755-4.727 5.264h9.131v-0.698c0.036-1.449-0.332-2.573-1.101-3.369-0.77-0.798-1.871-1.197-3.303-1.197z" fill="#D3D7CF"/>
<path d="m261.03 56.064h-16.14v-6.982h16.14v6.982z" fill="#D3D7CF"/>
<path d="m268.01 32.887c0-1.289 0.466-2.345 1.396-3.169 0.933-0.822 2.141-1.234 3.627-1.234 1.484 0 2.693 0.412 3.626 1.234 0.93 0.824 1.396 1.88 1.396 3.169s-0.467 2.347-1.396 3.169c-0.933 0.824-2.142 1.235-3.626 1.235-1.486 0-2.694-0.412-3.627-1.235-0.93-0.822-1.396-1.88-1.396-3.169zm9.616 36.552h-9.078v-29.059h9.078v29.059z" fill="#D3D7CF"/>
<path d="m293.74 33.156v7.224h4.779v6.284h-4.779v13.293c0 1.092 0.196 1.854 0.591 2.283s1.173 0.645 2.337 0.645c0.896 0 1.646-0.054 2.256-0.161v6.473c-1.63 0.519-3.33 0.778-5.104 0.778-3.114 0-5.416-0.733-6.901-2.201-1.486-1.469-2.229-3.697-2.229-6.688v-14.422h-3.706v-6.284h3.706v-7.224h9.05z" fill="#D3D7CF"/>
<path d="m326.31 33.156v7.224h4.78v6.284h-4.78v13.293c0 1.092 0.196 1.854 0.591 2.283s1.172 0.645 2.336 0.645c0.896 0 1.647-0.054 2.256-0.161v6.473c-1.629 0.519-3.33 0.778-5.102 0.778-3.115 0-5.416-0.733-6.902-2.201-1.485-1.469-2.229-3.697-2.229-6.688v-14.422h-3.707v-6.284h3.707v-7.224h9.05z" fill="#3465A4"/>
<path d="m343.5 43.495c1.934-2.435 4.403-3.652 7.411-3.652 3.205 0 5.622 0.949 7.251 2.848 1.629 1.897 2.463 4.699 2.497 8.405v18.343h-9.075v-18.128c0-1.54-0.313-2.673-0.94-3.397-0.627-0.726-1.692-1.088-3.196-1.088-1.86 0-3.178 0.591-3.947 1.771v20.841h-9.05v-41.25h9.05v15.307h-1e-3z" fill="#3465A4"/>
<path d="m379.75 69.975c-4.459 0-8.065-1.328-10.823-3.987-2.757-2.658-4.136-6.118-4.136-10.379v-0.752c0-2.973 0.551-5.596 1.651-7.869 1.102-2.273 2.708-4.033 4.82-5.277s4.619-1.866 7.52-1.866c4.082 0 7.306 1.268 9.668 3.801 2.363 2.533 3.545 6.064 3.545 10.595v3.518h-17.992c0.321 1.629 1.028 2.91 2.12 3.84 1.094 0.932 2.508 1.396 4.244 1.396 2.864 0 5.103-1.002 6.713-3.008l4.138 4.888c-1.129 1.558-2.728 2.797-4.794 3.72-2.068 0.919-4.293 1.38-6.674 1.38zm-1.02-23.15c-2.649 0-4.226 1.755-4.727 5.264h9.131v-0.698c0.036-1.449-0.331-2.573-1.103-3.369-0.768-0.798-1.869-1.197-3.301-1.197z" fill="#3465A4"/>
<path d="m404.19 40.38l0.295 3.411c2.06-2.632 4.825-3.948 8.299-3.948 3.67 0 6.149 1.459 7.438 4.377 1.97-2.918 4.815-4.377 8.54-4.377 5.891 0 8.916 3.563 9.077 10.688v18.906h-9.077v-18.342c0-1.485-0.251-2.568-0.752-3.25-0.501-0.68-1.414-1.021-2.739-1.021-1.79 0-3.124 0.797-4.001 2.39l0.026 0.376v19.847h-9.077v-18.287c0-1.521-0.242-2.623-0.726-3.304-0.483-0.68-1.405-1.021-2.767-1.021-1.736 0-3.063 0.797-3.975 2.39v20.223h-9.051v-29.058h8.49z" fill="#3465A4"/>
<path d="m457.07 69.975c-4.458 0-8.064-1.328-10.823-3.987-2.757-2.658-4.135-6.118-4.135-10.379v-0.752c0-2.973 0.55-5.596 1.651-7.869s2.708-4.033 4.819-5.277c2.112-1.244 4.619-1.866 7.521-1.866 4.082 0 7.305 1.268 9.668 3.801s3.545 6.064 3.545 10.595v3.518h-17.993c0.322 1.629 1.029 2.91 2.121 3.84 1.093 0.932 2.507 1.396 4.244 1.396 2.864 0 5.102-1.002 6.713-3.008l4.137 4.888c-1.129 1.558-2.727 2.797-4.794 3.72-2.069 0.919-4.294 1.38-6.674 1.38zm-1.021-23.15c-2.649 0-4.227 1.755-4.728 5.264h9.131v-0.698c0.036-1.449-0.331-2.573-1.102-3.369-0.768-0.798-1.868-1.197-3.301-1.197z" fill="#3465A4"/>
<path d="m488.17 61.274c0-0.771-0.403-1.388-1.209-1.854-0.807-0.465-2.336-0.949-4.593-1.45-2.256-0.501-4.118-1.158-5.586-1.974-1.469-0.814-2.588-1.803-3.356-2.967-0.771-1.164-1.154-2.498-1.154-4.001 0-2.667 1.101-4.865 3.303-6.593 2.202-1.729 5.085-2.593 8.647-2.593 3.831 0 6.911 0.869 9.238 2.605 2.326 1.737 3.49 4.02 3.49 6.848h-9.077c0-2.327-1.227-3.491-3.679-3.491-0.949 0-1.746 0.265-2.391 0.792-0.646 0.528-0.967 1.188-0.967 1.975 0 0.806 0.394 1.459 1.182 1.96s2.045 0.913 3.773 1.234c1.728 0.322 3.244 0.708 4.552 1.155 4.368 1.504 6.553 4.199 6.553 8.083 0 2.65-1.178 4.808-3.531 6.473-2.354 1.664-5.401 2.497-9.145 2.497-2.488 0-4.709-0.447-6.66-1.343-1.951-0.895-3.474-2.111-4.565-3.651s-1.639-3.16-1.639-4.861h8.46c0.036 1.343 0.483 2.323 1.343 2.941 0.859 0.616 1.961 0.926 3.304 0.926 1.235 0 2.162-0.25 2.779-0.752 0.619-0.499 0.928-1.154 0.928-1.959z" fill="#3465A4"/>
<rect x="10.136" y="11.189" width="101" height="87" fill="#555753"/>
<polygon points="45.136 72.189 71.136 31.189 76.136 37.189 51.136 79.189" fill="#E6E7E8"/>
<polygon points="48.136 26.189 23.339 55.189 48.136 83.189 43.891 90.189 16.136 55.189 43.629 19.189" fill="#E6E7E8"/>
<polygon points="77.644 19.189 105.14 55.189 77.381 90.189 73.136 83.189 97.933 55.189 73.136 26.189" fill="#E6E7E8"/>
<g fill="#EEEEEC">
	<path d="m195.74 95.641c0-0.301-0.106-0.535-0.319-0.703s-0.587-0.342-1.122-0.521-0.973-0.354-1.313-0.521c-1.105-0.543-1.658-1.289-1.658-2.238 0-0.473 0.138-0.89 0.413-1.251s0.665-0.643 1.169-0.844 1.07-0.302 1.699-0.302c0.613 0 1.163 0.109 1.649 0.328s0.864 0.53 1.134 0.935 0.404 0.866 0.404 1.386h-2.051c0-0.348-0.106-0.617-0.319-0.809s-0.501-0.287-0.864-0.287c-0.367 0-0.657 0.081-0.87 0.243s-0.319 0.368-0.319 0.618c0 0.219 0.117 0.417 0.352 0.595s0.646 0.361 1.236 0.551 1.074 0.394 1.453 0.612c0.922 0.531 1.383 1.264 1.383 2.197 0 0.746-0.281 1.332-0.844 1.758s-1.334 0.639-2.314 0.639c-0.691 0-1.317-0.124-1.878-0.372s-0.982-0.588-1.266-1.02-0.425-0.929-0.425-1.491h2.063c0 0.457 0.118 0.794 0.354 1.011s0.62 0.325 1.151 0.325c0.34 0 0.608-0.073 0.806-0.22s0.296-0.354 0.296-0.619z"/>
	<path d="m206.69 96.315h-2.818l-0.492 1.594h-2.197l3.129-8.531h1.934l3.152 8.531h-2.209l-0.499-1.594zm-2.326-1.588h1.834l-0.92-2.959-0.914 2.959z"/>
	<path d="m216.32 95.588l1.699-6.211h2.297l-2.871 8.531h-2.25l-2.848-8.531h2.279l1.694 6.211z"/>
	<path d="m229.21 94.287h-3.234v2.039h3.82v1.582h-5.877v-8.531h5.889v1.588h-3.832v1.799h3.234v1.523z"/>
	<path d="m242.72 93.08l1.57-3.703h2.221l-2.748 5.467v3.064h-2.086v-3.064l-2.742-5.467h2.209l1.576 3.703z"/>
	<path d="m257.35 93.819c0 0.832-0.154 1.568-0.463 2.209s-0.747 1.134-1.315 1.479-1.216 0.519-1.942 0.519-1.371-0.167-1.934-0.501-1.001-0.812-1.315-1.433-0.479-1.334-0.495-2.139v-0.48c0-0.836 0.153-1.573 0.46-2.212s0.746-1.132 1.318-1.479 1.224-0.521 1.954-0.521c0.723 0 1.367 0.172 1.934 0.516s1.007 0.833 1.321 1.468 0.474 1.362 0.478 2.183v0.391zm-2.092-0.358c0-0.848-0.142-1.491-0.425-1.931s-0.688-0.659-1.216-0.659c-1.031 0-1.576 0.773-1.635 2.32l-6e-3 0.627c0 0.836 0.139 1.479 0.416 1.928s0.689 0.674 1.236 0.674c0.52 0 0.92-0.221 1.201-0.662s0.424-1.076 0.428-1.904v-0.393z"/>
	<path d="m268.09 89.377v5.584c0 0.633-0.135 1.181-0.404 1.644s-0.656 0.815-1.16 1.058-1.1 0.363-1.787 0.363c-1.039 0-1.857-0.27-2.455-0.809s-0.902-1.277-0.914-2.215v-5.625h2.068v5.666c0.023 0.934 0.457 1.4 1.301 1.4 0.426 0 0.748-0.117 0.967-0.352s0.328-0.615 0.328-1.143v-5.572h2.056z"/>
	<path d="m275.53 94.891h-1.113v3.018h-2.057v-8.531h3.357c1.012 0 1.803 0.225 2.373 0.673 0.57 0.449 0.855 1.083 0.855 1.902 0 0.594-0.12 1.085-0.36 1.476-0.24 0.39-0.616 0.706-1.128 0.948l1.781 3.444v0.088h-2.203l-1.505-3.018zm-1.113-1.582h1.301c0.391 0 0.685-0.103 0.882-0.309 0.197-0.205 0.296-0.492 0.296-0.86s-0.1-0.657-0.299-0.866c-0.199-0.21-0.492-0.314-0.879-0.314h-1.301v2.349z"/>
	<path d="m292.32 94.891h-1.113v3.018h-2.057v-8.531h3.357c1.012 0 1.803 0.225 2.373 0.673 0.57 0.449 0.855 1.083 0.855 1.902 0 0.594-0.12 1.085-0.36 1.476-0.24 0.39-0.616 0.706-1.128 0.948l1.781 3.444v0.088h-2.203l-1.505-3.018zm-1.113-1.582h1.301c0.391 0 0.685-0.103 0.882-0.309 0.197-0.205 0.296-0.492 0.296-0.86s-0.1-0.657-0.299-0.866c-0.199-0.21-0.492-0.314-0.879-0.314h-1.301v2.349z"/>
	<path d="m305.26 94.287h-3.234v2.039h3.82v1.582h-5.877v-8.531h5.889v1.588h-3.832v1.799h3.234v1.523z"/>
	<path d="m316.02 90.965h-2.561v6.943h-2.057v-6.943h-2.514v-1.588h7.131v1.588z"/>
	<path d="m321.72 97.908h-2.051v-8.531h2.051v8.531z"/>
	<path d="m333.26 97.908h-2.045l-3.023-5.308v5.309h-2.057v-8.531h2.057l3.018 5.309v-5.309h2.051v8.53z"/>
	<path d="m342.39 96.315h-2.818l-0.492 1.594h-2.197l3.129-8.531h1.934l3.152 8.531h-2.209l-0.499-1.594zm-2.326-1.588h1.834l-0.92-2.959-0.914 2.959z"/>
	<path d="m353.11 95.641c0-0.301-0.106-0.535-0.319-0.703s-0.587-0.342-1.122-0.521-0.973-0.354-1.313-0.521c-1.105-0.543-1.658-1.289-1.658-2.238 0-0.473 0.138-0.89 0.413-1.251s0.665-0.643 1.169-0.844 1.07-0.302 1.699-0.302c0.613 0 1.163 0.109 1.649 0.328s0.864 0.53 1.134 0.935 0.404 0.866 0.404 1.386h-2.051c0-0.348-0.106-0.617-0.319-0.809s-0.501-0.287-0.864-0.287c-0.367 0-0.657 0.081-0.87 0.243s-0.319 0.368-0.319 0.618c0 0.219 0.117 0.417 0.352 0.595s0.646 0.361 1.236 0.551 1.074 0.394 1.453 0.612c0.922 0.531 1.383 1.264 1.383 2.197 0 0.746-0.281 1.332-0.844 1.758s-1.334 0.639-2.314 0.639c-0.691 0-1.317-0.124-1.878-0.372s-0.982-0.588-1.266-1.02-0.425-0.929-0.425-1.491h2.063c0 0.457 0.118 0.794 0.354 1.011s0.62 0.325 1.151 0.325c0.34 0 0.608-0.073 0.806-0.22s0.296-0.354 0.296-0.619z"/>
	<path d="m370.56 94.51h-3.316v3.398h-2.057v-8.531h5.707v1.588h-3.65v1.963h3.316v1.582z"/>
	<path d="m377.91 94.891h-1.113v3.018h-2.057v-8.531h3.357c1.012 0 1.803 0.225 2.373 0.673 0.57 0.449 0.855 1.083 0.855 1.902 0 0.594-0.12 1.085-0.36 1.476-0.24 0.39-0.616 0.706-1.128 0.948l1.781 3.444v0.088h-2.203l-1.505-3.018zm-1.113-1.582h1.301c0.391 0 0.685-0.103 0.882-0.309 0.197-0.205 0.296-0.492 0.296-0.86s-0.1-0.657-0.299-0.866c-0.199-0.21-0.492-0.314-0.879-0.314h-1.301v2.349z"/>
	<path d="m392.78 93.819c0 0.832-0.154 1.568-0.463 2.209s-0.747 1.134-1.315 1.479-1.216 0.519-1.942 0.519-1.371-0.167-1.934-0.501-1.001-0.812-1.315-1.433-0.479-1.334-0.495-2.139v-0.48c0-0.836 0.153-1.573 0.46-2.212s0.746-1.132 1.318-1.479 1.224-0.521 1.954-0.521c0.723 0 1.367 0.172 1.934 0.516s1.007 0.833 1.321 1.468 0.474 1.362 0.478 2.183v0.391zm-2.092-0.358c0-0.848-0.142-1.491-0.425-1.931s-0.688-0.659-1.216-0.659c-1.031 0-1.576 0.773-1.635 2.32l-6e-3 0.627c0 0.836 0.139 1.479 0.416 1.928s0.689 0.674 1.236 0.674c0.52 0 0.92-0.221 1.201-0.662s0.424-1.076 0.428-1.904v-0.393z"/>
	<path d="m399.53 89.377l1.904 5.936 1.898-5.936h2.707v8.531h-2.063v-1.992l0.199-4.078-2.063 6.07h-1.359l-2.068-6.076 0.199 4.084v1.992h-2.057v-8.531h2.703z"/>
	<path d="m422.66 90.965h-2.561v6.943h-2.057v-6.943h-2.514v-1.588h7.131v1.588z"/>
	<path d="m433.29 97.908h-2.045v-3.563h-3.029v3.563h-2.057v-8.531h2.057v3.387h3.029v-3.387h2.045v8.531z"/>
	<path d="m442.87 94.287h-3.234v2.039h3.82v1.582h-5.877v-8.531h5.889v1.588h-3.832v1.799h3.234v1.523z"/>
	<path d="m453.26 97.908v-8.531h3.064c1.098 0 1.933 0.201 2.505 0.604s0.858 0.986 0.858 1.752c0 0.441-0.102 0.818-0.305 1.131s-0.502 0.543-0.896 0.691c0.445 0.117 0.787 0.336 1.025 0.656s0.357 0.711 0.357 1.172c0 0.836-0.265 1.464-0.794 1.884s-1.313 0.634-2.353 0.642h-3.461zm2.057-4.974h1.072c0.449-4e-3 0.77-0.086 0.961-0.247 0.191-0.16 0.287-0.397 0.287-0.711 0-0.36-0.104-0.62-0.311-0.778-0.207-0.159-0.541-0.238-1.002-0.238h-1.008v1.974zm0 1.347v2.045h1.348c0.371 0 0.656-0.085 0.855-0.255s0.299-0.409 0.299-0.718c0-0.711-0.354-1.068-1.061-1.072h-1.441z"/>
	<path d="m470.68 89.377v5.584c0 0.633-0.135 1.181-0.404 1.644s-0.656 0.815-1.16 1.058-1.1 0.363-1.787 0.363c-1.039 0-1.857-0.27-2.455-0.809s-0.902-1.277-0.914-2.215v-5.625h2.068v5.666c0.023 0.934 0.457 1.4 1.301 1.4 0.426 0 0.748-0.117 0.967-0.352s0.328-0.615 0.328-1.143v-5.572h2.056z"/>
	<path d="m478.12 94.891h-1.113v3.018h-2.057v-8.531h3.357c1.012 0 1.803 0.225 2.373 0.673 0.57 0.449 0.855 1.083 0.855 1.902 0 0.594-0.12 1.085-0.36 1.476-0.24 0.39-0.616 0.706-1.128 0.948l1.781 3.444v0.088h-2.203l-1.505-3.018zm-1.113-1.582h1.301c0.391 0 0.685-0.103 0.882-0.309 0.197-0.205 0.296-0.492 0.296-0.86s-0.1-0.657-0.299-0.866c-0.199-0.21-0.492-0.314-0.879-0.314h-1.301v2.349z"/>
	<path d="m492.89 97.908h-2.045l-3.023-5.309v5.309h-2.057v-8.531h2.057l3.018 5.309v-5.309h2.051v8.531z"/>
	<path d="m494.15 97.024c0-0.289 0.104-0.526 0.313-0.712s0.47-0.278 0.782-0.278 0.573 0.093 0.782 0.278 0.313 0.423 0.313 0.712-0.104 0.526-0.313 0.712-0.47 0.278-0.782 0.278-0.573-0.093-0.782-0.278-0.313-0.423-0.313-0.712zm1.91-1.817h-1.6l-0.252-5.83h2.104l-0.252 5.83z"/>
</g>
</svg>
