<svg xmlns="http://www.w3.org/2000/svg" width="516" height="114">
  <path fill="#7D3ECD" d="M136.1 61.5c0-.8-.399-1.4-1.2-1.9-.8-.5-2.3-.898-4.601-1.398-2.3-.5-4.1-1.2-5.6-2s-2.601-1.8-3.4-3c-.8-1.2-1.199-2.5-1.199-4 0-2.7 1.101-4.9 3.3-6.6C125.6 40.9 128.5 40 132 40c3.8 0 6.899.9 9.2 2.6 2.3 1.7 3.5 4 3.5 6.8h-9.1c0-2.3-1.2-3.5-3.7-3.5-.899 0-1.699.3-2.399.8-.601.5-1 1.2-1 2s.399 1.5 1.2 2c.8.5 2 .9 3.8 1.2 1.7.3 3.2.7 4.601 1.2 4.399 1.5 6.601 4.2 6.601 8.1 0 2.6-1.2 4.8-3.5 6.5-2.399 1.7-5.399 2.5-9.101 2.5-2.5 0-4.7-.4-6.7-1.3s-3.5-2.102-4.601-3.602c-1.1-1.5-1.6-3.1-1.6-4.8h8.5c0 1.3.5 2.3 1.3 2.899.899.601 2 .899 3.301.899 1.199 0 2.199-.2 2.8-.8.698-.496.998-1.196.998-1.996z"/>
  <path fill="#A7082F" d="M160.6 33.4v7.2h4.8v6.3h-4.8v13.3c0 1.1.199 1.899.601 2.3.399.4 1.199.6 2.3.6.899 0 1.601-.1 2.3-.199v6.5c-1.6.5-3.3.801-5.1.801-3.101 0-5.4-.7-6.9-2.2s-2.199-3.7-2.199-6.7V46.9h-3.7v-6.3h3.7v-7.2h8.998z"/>
  <path fill="#E7A600" d="M182.6 57l4.8-16.4h9.7l-11.8 33.9-.5 1.2c-1.699 3.8-4.699 5.6-8.899 5.6-1.199 0-2.399-.2-3.699-.5v-6.3h1.199c1.301 0 2.2-.2 2.899-.6.7-.4 1.2-1 1.5-2l.7-1.9-10.1-29.3h9.7l4.5 16.3z"/>
  <path fill="#08A70E" d="M208.15 70.05h-9.1v-41.2h9.1v41.2z"/>
  <path fill="#A7082F" d="M226.9 70.2c-4.5 0-8.101-1.3-10.8-4-2.8-2.7-4.1-6.1-4.1-10.4V55c0-3 .601-5.6 1.601-7.9 1.101-2.3 2.699-4 4.8-5.3 2.101-1.2 4.601-1.9 7.5-1.9 4.101 0 7.301 1.3 9.7 3.8s3.5 6.1 3.5 10.6v3.5h-18c.3 1.601 1 2.9 2.101 3.8 1.1.9 2.5 1.4 4.199 1.4 2.899 0 5.101-1 6.7-3l4.101 4.9c-1.101 1.6-2.7 2.8-4.801 3.699C231.5 69.8 229.2 70.2 226.9 70.2zm-1.1-23.1c-2.6 0-4.199 1.8-4.699 5.3h9.101v-.7c0-1.4-.301-2.6-1.101-3.4-.701-.8-1.801-1.2-3.301-1.2z"/>
  <path fill="#7D3ECD" d="M261.6 55.7h-17v-7h17v7z"/>
  <path fill="#48B412" d="M266.2 33.1c0-1.3.5-2.3 1.399-3.2.899-.8 2.101-1.2 3.601-1.2s2.699.4 3.6 1.2c.9.8 1.4 1.9 1.4 3.2 0 1.3-.5 2.3-1.4 3.2-.899.8-2.1 1.2-3.6 1.2s-2.7-.4-3.601-1.2c-.999-.8-1.399-1.9-1.399-3.2zm9.6 36.6h-9.1V40.6h9.1v29.1z"/>
  <path fill="#E7AD17" d="M291.6 33.4v7.2h4.8v6.3h-4.8v13.3c0 1.1.199 1.899.601 2.3.399.4 1.199.6 2.3.6.899 0 1.601-.1 2.3-.199v6.5c-1.6.5-3.3.801-5.1.801-3.101 0-5.4-.7-6.9-2.2s-2.199-3.7-2.199-6.7V46.9h-3.7v-6.3h3.7v-7.2h8.998z"/>
  <path fill="#1572CD" d="M334.199 33.8V41H339v6.3h-4.801v13.3c0 1.102.2 1.9.601 2.301.399.399 1.2.601 2.301.601.899 0 1.6-.101 2.3-.2v6.5c-1.601.5-3.3.801-5.101.801-3.101 0-5.399-.699-6.899-2.199s-2.2-3.7-2.2-6.7V47.3h-3.7V41h3.7v-7.2h8.998zM351.5 44.1c1.899-2.4 4.399-3.7 7.399-3.7 3.2 0 5.601.9 7.3 2.9 1.601 1.9 2.5 4.7 2.5 8.4V70h-9.1V52c0-1.5-.301-2.7-.9-3.4-.6-.7-1.7-1.1-3.2-1.1-1.898 0-3.199.6-3.898 1.8v20.8h-9.102V28.8h9.102l-.101 15.3zM386.6 70.6c-4.5 0-8.101-1.3-10.801-4-2.8-2.699-4.101-6.1-4.101-10.398v-.8c0-3 .601-5.6 1.601-7.9 1.101-2.3 2.7-4 4.801-5.3 2.1-1.2 4.6-1.9 7.5-1.9 4.1 0 7.3 1.3 9.699 3.8s3.5 6.1 3.5 10.6v3.5h-18c.301 1.6 1 2.898 2.101 3.8 1.101.899 2.5 1.399 4.2 1.399 2.899 0 5.1-1 6.7-3l4.1 4.899c-1.1 1.601-2.7 2.8-4.8 3.7-1.901 1.2-4.1 1.6-6.5 1.6zm-1-23.1c-2.601 0-4.2 1.8-4.7 5.3h9.1v-.7c0-1.4-.301-2.6-1.101-3.4-.799-.8-1.899-1.2-3.299-1.2zM410.3 41l.301 3.4c2.1-2.6 4.8-3.9 8.3-3.9 3.7 0 6.1 1.5 7.4 4.4 2-2.9 4.8-4.4 8.5-4.4 5.898 0 8.898 3.6 9.1 10.7v18.9h-9.1V51.8c0-1.5-.302-2.6-.802-3.2-.5-.7-1.398-1-2.698-1-1.802 0-3.102.8-4 2.4V70.1h-9.102V51.8c0-1.5-.2-2.6-.7-3.3s-1.398-1-2.8-1c-1.7 0-3.1.8-4 2.4v20.2h-9.1V41h8.701zM461.9 70.6c-4.5 0-8.1-1.3-10.8-4-2.799-2.7-4.1-6.1-4.1-10.4v-.8c0-3 .601-5.6 1.699-7.9 1.102-2.3 2.7-4 4.801-5.3 2.101-1.2 4.601-1.9 7.5-1.9 4.101 0 7.301 1.3 9.699 3.8 2.4 2.5 3.5 6.1 3.5 10.6v3.5h-18c.301 1.6 1 2.899 2.102 3.8 1.1.9 2.5 1.4 4.2 1.4 2.898 0 5.1-1 6.698-3l4.102 4.899c-1.102 1.601-2.7 2.8-4.801 3.7-2 1.201-4.199 1.601-6.6 1.601zm-1-23.1c-2.6 0-4.2 1.8-4.7 5.3h9.102v-.7c0-1.4-.3-2.6-1.102-3.4-.8-.8-1.899-1.2-3.3-1.2zM494 61.9c0-.801-.399-1.4-1.199-1.9-.801-.5-2.301-.9-4.602-1.4-2.3-.5-4.1-1.2-5.6-2s-2.602-1.8-3.4-3c-.8-1.2-1.2-2.5-1.2-4 0-2.7 1.102-4.9 3.302-6.6 2.198-1.7 5.1-2.6 8.6-2.6 3.8 0 6.9.9 9.2 2.6s3.5 4 3.5 6.8h-9.102c0-2.3-1.198-3.5-3.698-3.5-.9 0-1.7.3-2.4.8-.6.5-1 1.2-1 2s.4 1.5 1.2 2 2 .9 3.8 1.2c1.7.3 3.2.7 4.6 1.2 4.4 1.5 6.602 4.2 6.602 8.1 0 2.7-1.2 4.801-3.5 6.5-2.4 1.7-5.4 2.5-9.102 2.5-2.5 0-4.698-.398-6.698-1.3-2-.899-3.5-2.1-4.602-3.6a8.2 8.2 0 0 1-1.6-4.9h8.5c0 1.3.5 2.3 1.3 2.9.9.6 2 .899 3.3.899 1.2 0 2.2-.199 2.8-.801.698-.398.999-1.098.999-1.898z"/>
  <path fill="#E7A600" d="M198.2 94.8c0-.3-.101-.5-.301-.7-.199-.199-.601-.3-1.101-.5-.5-.199-1-.398-1.3-.5-1.101-.5-1.7-1.3-1.7-2.199 0-.5.101-.899.4-1.199.3-.4.699-.602 1.199-.801s1.101-.301 1.7-.301c.601 0 1.199.102 1.601.301.5.199.899.5 1.1.899.301.4.4.9.4 1.4H198.1c0-.3-.101-.601-.301-.8-.199-.2-.5-.301-.899-.301s-.699.101-.899.199c-.2.2-.3.4-.3.602 0 .199.1.398.399.6.199.2.601.4 1.199.6.601.2 1.101.4 1.5.602.9.5 1.4 1.3 1.4 2.199 0 .699-.301 1.301-.801 1.801-.601.398-1.3.6-2.3.6-.7 0-1.301-.1-1.899-.398-.601-.2-1-.602-1.301-1-.3-.4-.399-.9-.399-1.5h2.101c0 .5.101.8.399 1 .2.199.601.3 1.2.3.3 0 .6-.101.8-.2.101-.204.201-.404.201-.704zM209.1 95.5h-2.8l-.5 1.6h-2.2l3.101-8.5h1.899l3.101 8.5h-2.2l-.401-1.6zm-2.3-1.6h1.801l-.899-3-.902 3zM218.8 94.8l1.7-6.2h2.3l-2.899 8.5h-2.2l-2.801-8.5h2.301l1.599 6.2zM231.7 93.5h-3.2v2h3.8v1.6h-5.9v-8.5h5.899v1.6h-3.8V92h3.2v1.5zM245.2 92.3l1.6-3.7h2.2l-2.7 5.5v3.1h-2.1v-3.1l-2.7-5.5h2.2l1.5 3.7zM259.8 93c0 .8-.199 1.6-.5 2.2-.3.6-.699 1.1-1.3 1.5-.601.3-1.2.5-1.899.5-.7 0-1.4-.2-1.9-.5-.601-.3-1-.8-1.301-1.4-.3-.6-.5-1.3-.5-2.1v-.5c0-.8.2-1.601.5-2.2.301-.6.7-1.1 1.301-1.5.6-.3 1.199-.5 2-.5.699 0 1.399.2 1.899.5.601.3 1 .8 1.3 1.5.301.6.5 1.4.5 2.2l-.1.3zm-2.1-.3c0-.8-.101-1.5-.4-1.9-.3-.399-.699-.7-1.199-.7-1 0-1.601.801-1.601 2.301V93c0 .8.101 1.5.399 1.9.301.398.7.699 1.2.699s.899-.199 1.199-.699c.301-.4.4-1.102.4-1.9l.002-.3zM270.5 88.6v5.6c0 .6-.101 1.2-.399 1.6-.301.5-.7.8-1.2 1.101-.5.199-1.101.399-1.8.399-1 0-1.899-.3-2.5-.8s-.899-1.3-.899-2.2v-5.6h2.101v5.7c0 .898.5 1.398 1.3 1.398.399 0 .7-.1 1-.398.2-.2.3-.602.3-1.102v-5.6l2.097-.098zM278 94.1h-1.1v3h-2.1v-8.5h3.4c1 0 1.8.2 2.399.7.601.4.899 1.101.899 1.9 0 .6-.101 1.1-.399 1.5-.2.399-.601.7-1.101.899l1.8 3.399v.102h-2.199l-1.599-3zm-1.1-1.6h1.301c.399 0 .699-.1.899-.3.199-.2.3-.5.3-.9 0-.399-.101-.7-.3-.899-.2-.199-.5-.301-.899-.301H276.9v2.4zM294.8 94.1h-1.101v3h-2.1v-8.5h3.398c1 0 1.801.2 2.4.7.6.4.899 1.101.899 1.9 0 .6-.101 1.1-.399 1.5-.2.399-.601.7-1.101.899l1.801 3.399v.102h-2.2l-1.597-3zm-1.101-1.6H295c.399 0 .699-.1.899-.3s.3-.5.3-.9c0-.399-.1-.7-.3-.899s-.5-.301-.899-.301h-1.301v2.4zM307.699 93.5H304.5v2h3.8v1.6h-5.9v-8.5h5.899v1.6h-3.8V92h3.199v1.5zM318.5 90.2h-2.6v6.9h-2.1v-6.9h-2.5v-1.6h7.101l.099 1.6zM324.199 97.1h-2.1v-8.5h2.1v8.5zM335.699 97.1h-2l-3-5.3v5.3h-2.1v-8.5h2.1l3 5.301V88.6h2.101l-.101 8.5zM344.8 95.5H342l-.5 1.6h-2.2l3.101-8.5h1.899l3.2 8.5h-2.2l-.5-1.6zm-2.3-1.6h1.8l-.899-3-.901 3zM355.6 94.8c0-.3-.101-.5-.301-.7-.199-.199-.601-.3-1.101-.5-.5-.199-1-.398-1.3-.5-1.101-.5-1.7-1.3-1.7-2.199 0-.5.101-.899.4-1.199.3-.4.699-.602 1.199-.801s1.101-.301 1.7-.301c.601 0 1.199.102 1.601.301.5.199.899.5 1.1.899.301.4.4.9.4 1.4h-2.101c0-.3-.101-.601-.301-.8-.199-.2-.5-.301-.899-.301s-.699.101-.899.199c-.2.2-.3.4-.3.602 0 .199.1.398.399.6.199.2.601.4 1.199.6.602.2 1.102.4 1.5.602.9.5 1.4 1.3 1.4 2.199 0 .699-.301 1.301-.801 1.801-.601.398-1.3.6-2.3.6-.7 0-1.301-.1-1.899-.398-.601-.2-1-.602-1.3-1-.301-.4-.4-.9-.4-1.5H353c0 .5.101.8.399 1 .3.199.601.3 1.2.3.3 0 .6-.101.8-.2.101-.204.201-.404.201-.704zM373 93.7h-3.301v3.4h-2.1v-8.5h5.699v1.6h-3.601v2H373v1.5zM380.4 94.1h-1.1v3h-2.101v-8.5h3.4c1 0 1.8.2 2.398.7.602.4.9 1.101.9 1.9 0 .6-.101 1.1-.4 1.5-.199.399-.6.7-1.1.899l1.8 3.399v.102h-2.2l-1.597-3zm-1.1-1.6h1.301c.398 0 .699-.1.898-.3.2-.2.301-.5.301-.9 0-.399-.101-.7-.301-.899-.199-.199-.5-.301-.898-.301H379.3v2.4zM395.199 93c0 .8-.199 1.6-.5 2.2-.3.6-.699 1.1-1.3 1.5-.601.3-1.2.5-1.899.5-.7 0-1.399-.2-1.899-.5-.601-.3-1-.8-1.3-1.4-.301-.6-.5-1.3-.5-2.1v-.5c0-.8.199-1.601.5-2.2.3-.6.699-1.1 1.3-1.5.6-.3 1.2-.5 2-.5.7 0 1.399.2 1.899.5.601.3 1 .8 1.3 1.5.301.6.5 1.4.5 2.2l-.101.3zm-2.099-.3c0-.8-.101-1.5-.4-1.9-.3-.399-.699-.7-1.199-.7-1 0-1.601.801-1.601 2.301V93c0 .8.101 1.5.399 1.9.301.398.7.699 1.2.699s.899-.199 1.199-.699c.301-.4.4-1.102.4-1.9l.002-.3zM402 88.6l1.899 5.9 1.899-5.9h2.7v8.5H406.4v-2l.2-4.1-2.101 6.1H403.1L401 91l.199 4.1v2h-2.1v-8.5H402zM425.1 90.2h-2.6v6.9h-2.1v-6.9h-2.5v-1.6h7.1l.1 1.6zM435.699 97.1h-2v-3.6h-3v3.6h-2.1v-8.5h2.1V92h3v-3.4h2v8.5zM445.301 93.5h-3.2v2h3.8v1.6H440v-8.5h5.9v1.6h-3.8V92h3.2v1.5h.001zM455.699 97.1v-8.5h3.102c1.1 0 1.898.2 2.5.602.6.398.898 1 .898 1.8 0 .399-.1.8-.3 1.101s-.5.5-.898.699c.398.102.8.301 1 .7.198.3.398.7.398 1.2 0 .8-.3 1.5-.8 1.898-.5.4-1.3.602-2.4.602h-3.5V97.1zm2.102-5h1.1c.4 0 .8-.1 1-.199.2-.199.3-.399.3-.699 0-.4-.1-.602-.3-.801s-.5-.199-1-.199h-1l-.1 1.898zm0 1.4v2h1.3c.398 0 .7-.1.898-.3.2-.2.302-.4.302-.7 0-.7-.4-1.1-1.102-1.1h-1.398v.1zM473.1 88.6v5.6c0 .6-.101 1.2-.4 1.6-.3.5-.698.8-1.198 1.101-.502.199-1.102.399-1.803.399-1 0-1.898-.3-2.5-.8-.6-.5-.898-1.3-.898-2.2v-5.6h2.1v5.7c0 .898.5 1.398 1.3 1.398.4 0 .7-.1 1-.398.2-.2.3-.601.3-1.101v-5.6l2.099-.099zM480.6 94.1h-1.1v3h-2.1v-8.5h3.4c1 0 1.8.2 2.398.7.602.4.9 1.101.9 1.9 0 .6-.102 1.1-.4 1.5-.2.399-.6.7-1.1.899l1.8 3.399v.102h-2.2l-1.598-3zm-1.1-1.6h1.301c.398 0 .699-.1.898-.3.2-.2.3-.5.3-.9 0-.399-.1-.7-.3-.899s-.5-.301-.898-.301H479.5v2.4zM495.301 97.1h-2l-3-5.3v5.3h-2.102v-8.5h2.102l3 5.301V88.6h2.1l-.1 8.5zM500.6 96.2c0-.3.1-.5.3-.7s.5-.3.8-.3.602.1.8.3c.2.2.302.4.302.7s-.102.5-.302.7c-.198.199-.5.3-.8.3s-.6-.101-.8-.3c-.201-.2-.3-.4-.3-.7zm1.9-1.8h-1.6l-.3-5.801h2.1l-.2 5.801z"/>
  <g opacity=".8" fill="#ECAB00">
    <polygon points="41.3,74.9 67.4,33.7 72.4,39.7 47.3,81.9"/>
    <polygon points="43.9,29 19,58.2 43.9,86.3 39.6,93.4 11.7,58.2 39.3,22"/>
    <polygon points="74.5,22 102.1,58.2 74.3,93.4 70,86.3 94.9,58.2 70,29"/>
  </g>
  <polygon fill="#9A6F00" points="43.3,73.9 50.767,62.111 69.4,32.7 74.4,38.7 57.845,66.532 49.3,80.9"/>
  <polygon fill="#9A6F00" points="45.9,28 21,57.2 45.9,85.3 41.6,92.4 13.7,57.2 41.4,21"/>
  <polygon fill="#9A6F00" points="76.5,21 104.2,57.2 76.3,92.4 72,85.3 96.9,57.2 72,28"/>
</svg>
