<?xml version="1.0" encoding="UTF-8"?>
<!DOCTYPE svg  PUBLIC '-//W3C//DTD SVG 1.1//EN'  'http://www.w3.org/Graphics/SVG/1.1/DTD/svg11.dtd'>
<svg width="516px" height="115px" enable-background="new -3.205 -3.57 516 115" version="1.1" viewBox="-3.205 -3.57 516 115" xml:space="preserve" xmlns="http://www.w3.org/2000/svg">
<path d="m141.8 61.276c0-0.771-0.403-1.39-1.208-1.854-0.809-0.465-2.339-0.947-4.595-1.449s-4.115-1.157-5.586-1.975c-1.468-0.813-2.587-1.803-3.354-2.967-0.771-1.164-1.155-2.498-1.155-4.001 0-2.667 1.101-4.865 3.303-6.593 2.202-1.729 5.084-2.595 8.647-2.595 3.831 0 6.911 0.869 9.238 2.605 2.324 1.737 3.488 4.02 3.488 6.848h-9.077c0-2.327-1.227-3.489-3.679-3.489-0.949 0-1.746 0.265-2.39 0.792-0.646 0.526-0.967 1.188-0.967 1.975 0 0.806 0.394 1.459 1.182 1.96s2.045 0.913 3.771 1.234c1.729 0.32 3.244 0.708 4.554 1.153 4.368 1.504 6.553 4.199 6.553 8.083 0 2.65-1.177 4.81-3.531 6.475-2.354 1.664-5.4 2.497-9.145 2.497-2.489 0-4.709-0.447-6.66-1.345-1.952-0.895-3.474-2.109-4.565-3.649s-1.638-3.092-1.638-4.792h8.459c0.036 1.343 0.483 2.254 1.343 2.872 0.859 0.614 1.96 0.926 3.306 0.926 1.232 0 2.159-0.25 2.777-0.752 0.62-0.499 0.929-1.156 0.929-1.959z" fill="#D3D7CF"/>
<path d="m165.3 33.156v7.224h4.777v6.284h-4.777v13.293c0 1.092 0.194 1.854 0.591 2.283 0.394 0.43 1.172 0.645 2.336 0.645 0.895 0 1.646-0.054 2.256-0.159v6.473c-1.629 0.519-3.33 0.778-5.104 0.778-3.112 0-5.416-0.733-6.899-2.201-1.486-1.469-2.229-3.697-2.229-6.688v-14.424h-3.706v-6.284h3.706v-7.224h9.049z" fill="#D3D7CF"/>
<path d="m185.25 56.764l4.834-16.384h9.695l-11.843 33.918-0.51 1.235c-1.686 3.76-4.655 5.64-8.916 5.64-1.185 0-2.429-0.178-3.733-0.533v-6.446h1.182c1.271 0 2.243-0.187 2.914-0.552 0.672-0.367 1.168-1.025 1.491-1.978l0.725-1.935-10.099-29.35h9.668l4.592 16.385z" fill="#D3D7CF"/>
<path d="m211.68 69.441h-9.077v-41.25h9.077v41.25z" fill="#D3D7CF"/>
<path d="m231.31 69.977c-4.458 0-8.066-1.328-10.823-3.987-2.757-2.658-4.136-6.118-4.136-10.379v-0.752c0-2.975 0.55-5.598 1.649-7.869 1.103-2.273 2.708-4.033 4.82-5.277s4.619-1.865 7.521-1.865c4.082 0 7.305 1.269 9.668 3.802 2.36 2.533 3.545 6.063 3.545 10.595v3.518h-17.993c0.322 1.631 1.029 2.91 2.122 3.842 1.092 0.932 2.506 1.396 4.243 1.396 2.861 0 5.103-1.002 6.714-3.008l4.136 4.888c-1.128 1.56-2.726 2.797-4.793 3.721-2.068 0.914-4.292 1.375-6.673 1.375zm-1.021-23.152c-2.647 0-4.226 1.755-4.727 5.264h9.131v-0.696c0.036-1.449-0.332-2.573-1.101-3.369-0.769-0.798-1.87-1.199-3.303-1.199z" fill="#D3D7CF"/>
<path d="m264.88 56.066h-16.14v-6.982h16.14v6.982z" fill="#D3D7CF"/>
<path d="m271.86 32.889c0-1.289 0.466-2.347 1.396-3.171 0.935-0.82 2.143-1.232 3.629-1.232 1.482 0 2.691 0.412 3.626 1.232 0.93 0.824 1.396 1.882 1.396 3.171 0 1.287-0.467 2.347-1.396 3.169-0.935 0.822-2.144 1.233-3.626 1.233-1.486 0-2.694-0.412-3.629-1.233-0.93-0.822-1.396-1.882-1.396-3.169zm9.616 36.552h-9.078v-29.061h9.078v29.061z" fill="#D3D7CF"/>
<path d="m297.59 33.156v7.224h4.779v6.284h-4.779v13.293c0 1.092 0.196 1.854 0.593 2.283 0.395 0.429 1.173 0.645 2.337 0.645 0.896 0 1.646-0.054 2.256-0.159v6.473c-1.63 0.519-3.33 0.778-5.104 0.778-3.112 0-5.416-0.733-6.899-2.201-1.486-1.469-2.229-3.697-2.229-6.688v-14.424h-3.706v-6.284h3.706v-7.224h9.046z" fill="#D3D7CF"/>
<path d="m330.16 33.156v7.224h4.78v6.284h-4.78v13.293c0 1.092 0.196 1.854 0.591 2.283 0.396 0.429 1.172 0.645 2.336 0.645 0.896 0 1.647-0.054 2.256-0.159v6.473c-1.629 0.519-3.33 0.778-5.102 0.778-3.115 0-5.416-0.733-6.902-2.201-1.483-1.469-2.229-3.697-2.229-6.688v-14.424h-3.706v-6.284h3.707v-7.224h9.049z" fill="#3465A4"/>
<path d="m347.35 43.495c1.934-2.435 4.401-3.652 7.409-3.652 3.205 0 5.622 0.949 7.251 2.85 1.631 1.896 2.465 4.699 2.497 8.405v18.343h-9.073v-18.128c0-1.54-0.313-2.673-0.94-3.397-0.627-0.726-1.692-1.088-3.196-1.088-1.858 0-3.178 0.591-3.945 1.771v20.841h-9.052v-41.25h9.052l-3e-3 15.305z" fill="#3465A4"/>
<path d="m383.6 69.977c-4.461 0-8.065-1.328-10.823-3.987-2.757-2.658-4.136-6.118-4.136-10.379v-0.752c0-2.975 0.551-5.598 1.649-7.869 1.104-2.273 2.708-4.033 4.82-5.277 2.11-1.244 4.619-1.865 7.52-1.865 4.082 0 7.308 1.269 9.668 3.802 2.363 2.533 3.545 6.063 3.545 10.595v3.518h-17.99c0.319 1.631 1.026 2.91 2.118 3.842 1.096 0.932 2.51 1.396 4.244 1.396 2.864 0 5.104-1.002 6.713-3.008l4.14 4.888c-1.129 1.56-2.729 2.797-4.794 3.721-2.069 0.914-4.293 1.375-6.674 1.375zm-1.021-23.152c-2.649 0-4.226 1.755-4.727 5.264h9.131v-0.696c0.036-1.449-0.331-2.573-1.104-3.369-0.766-0.798-1.869-1.199-3.3-1.199z" fill="#3465A4"/>
<path d="m408.04 40.38l0.295 3.411c2.062-2.632 4.825-3.948 8.299-3.948 3.67 0 6.149 1.459 7.438 4.377 1.97-2.918 4.813-4.377 8.54-4.377 5.891 0 8.916 3.563 9.077 10.688v18.906h-9.077v-18.34c0-1.485-0.251-2.568-0.752-3.25s-1.414-1.021-2.739-1.021c-1.79 0-3.124 0.797-4.001 2.39l0.026 0.376v19.848h-9.077v-18.288c0-1.521-0.242-2.623-0.728-3.304-0.481-0.682-1.403-1.021-2.767-1.021-1.736 0-3.063 0.797-3.977 2.39v20.225h-9.051v-29.062h8.494z" fill="#3465A4"/>
<path d="m460.92 69.977c-4.458 0-8.063-1.328-10.823-3.987-2.757-2.658-4.135-6.118-4.135-10.379v-0.752c0-2.975 0.55-5.598 1.651-7.869 1.101-2.273 2.708-4.033 4.817-5.277 2.112-1.244 4.619-1.865 7.521-1.865 4.082 0 7.305 1.269 9.668 3.802s3.545 6.063 3.545 10.595v3.518h-17.993c0.322 1.631 1.029 2.91 2.121 3.842 1.093 0.932 2.507 1.396 4.244 1.396 2.864 0 5.102-1.002 6.713-3.008l4.137 4.888c-1.129 1.56-2.727 2.797-4.794 3.721-2.066 0.914-4.293 1.375-6.672 1.375zm-1.02-23.152c-2.649 0-4.229 1.755-4.729 5.264h9.131v-0.696c0.036-1.449-0.331-2.573-1.102-3.369-0.767-0.798-1.868-1.199-3.3-1.199z" fill="#3465A4"/>
<path d="m492.02 61.276c0-0.771-0.403-1.39-1.209-1.854-0.809-0.465-2.336-0.947-4.595-1.449-2.256-0.502-4.116-1.157-5.586-1.975-1.469-0.813-2.588-1.803-3.354-2.967-0.771-1.164-1.154-2.498-1.154-4.001 0-2.667 1.102-4.865 3.303-6.593 2.202-1.729 5.085-2.595 8.647-2.595 3.831 0 6.911 0.869 9.238 2.605 2.324 1.737 3.488 4.02 3.488 6.848h-9.075c0-2.327-1.229-3.489-3.681-3.489-0.949 0-1.746 0.265-2.391 0.792-0.646 0.526-0.967 1.188-0.967 1.975 0 0.806 0.394 1.459 1.182 1.96s2.045 0.913 3.773 1.234c1.728 0.32 3.242 0.708 4.552 1.153 4.368 1.504 6.553 4.199 6.553 8.083 0 2.65-1.178 4.81-3.531 6.475-2.354 1.664-5.399 2.497-9.145 2.497-2.488 0-4.709-0.447-6.66-1.345-1.951-0.895-3.474-2.109-4.565-3.649s-1.639-3.16-1.639-4.861h8.46c0.036 1.343 0.483 2.323 1.343 2.941 0.859 0.614 1.961 0.926 3.306 0.926 1.233 0 2.162-0.25 2.777-0.752 0.62-0.499 0.93-1.156 0.93-1.959z" fill="#3465A4"/>
<rect x="9.295" y="5.93" width="101" height="95" fill="#555753"/>
	<g opacity=".3">
		<polygon points="44.136 72.93 70.136 31.93 75.136 37.93 50.136 79.93" fill="#2E3436"/>
	</g>
		<polygon points="44.136 70.93 70.136 29.93 75.136 35.93 50.136 77.93" fill="#EEEEEC"/>
	<g opacity=".3">
		<polygon points="47.136 26.93 22.339 55.93 47.136 83.93 42.891 90.93 15.136 55.93 42.629 19.93" fill="#2E3436"/>
	</g>
		<polygon points="47.136 24.93 22.339 53.93 47.136 81.93 42.891 88.93 15.136 53.93 42.629 17.93" fill="#EEEEEC"/>
	<g opacity=".3">
		<polygon points="76.644 19.93 104.14 55.93 76.381 90.93 72.136 83.93 96.933 55.93 72.136 26.93" fill="#2E3436"/>
	</g>
		<polygon points="76.644 17.93 104.14 53.93 76.381 88.93 72.136 81.93 96.933 53.93 72.136 24.93" fill="#EEEEEC"/>
<g fill="#EEEEEC">
	<path d="m200.2 94.837c0-0.303-0.106-0.535-0.319-0.703s-0.587-0.342-1.122-0.521-0.973-0.354-1.313-0.521c-1.104-0.543-1.656-1.289-1.656-2.238 0-0.473 0.138-0.89 0.413-1.251 0.273-0.361 0.663-0.643 1.169-0.844 0.504-0.201 1.068-0.304 1.697-0.304 0.613 0 1.163 0.109 1.649 0.328 0.486 0.221 0.864 0.53 1.134 0.937 0.271 0.403 0.404 0.866 0.404 1.386h-2.051c0-0.348-0.106-0.617-0.319-0.809s-0.501-0.287-0.864-0.287c-0.367 0-0.657 0.081-0.87 0.243-0.213 0.16-0.317 0.366-0.317 0.616 0 0.221 0.117 0.417 0.352 0.597 0.235 0.178 0.646 0.359 1.236 0.551 0.59 0.188 1.074 0.394 1.453 0.612 0.922 0.529 1.383 1.264 1.383 2.195 0 0.746-0.281 1.332-0.844 1.76-0.563 0.426-1.334 0.639-2.314 0.639-0.689 0-1.315-0.124-1.878-0.372-0.561-0.248-0.981-0.588-1.266-1.021-0.284-0.432-0.427-0.929-0.427-1.489h2.063c0 0.457 0.118 0.794 0.354 1.011s0.62 0.325 1.151 0.325c0.34 0 0.608-0.073 0.806-0.222 0.197-0.146 0.296-0.354 0.296-0.618z"/>
	<path d="m211.15 95.511h-2.816l-0.492 1.594h-2.197l3.129-8.531h1.936l3.15 8.531h-2.209l-0.501-1.594zm-2.326-1.588h1.834l-0.92-2.959-0.914 2.959z"/>
	<path d="m220.78 94.782l1.699-6.211h2.297l-2.871 8.531h-2.25l-2.848-8.531h2.279l1.694 6.211z"/>
	<path d="m233.67 93.482h-3.234v2.039h3.82v1.582h-5.877v-8.531h5.889v1.588h-3.832v1.801h3.234v1.521z"/>
	<path d="m247.18 92.275l1.57-3.703h2.221l-2.748 5.467v3.064h-2.086v-3.064l-2.742-5.467h2.209l1.576 3.703z"/>
	<path d="m261.81 93.015c0 0.832-0.154 1.568-0.463 2.209s-0.747 1.134-1.315 1.479c-0.566 0.347-1.216 0.521-1.94 0.521-0.728 0-1.371-0.167-1.936-0.501-0.563-0.334-1.001-0.813-1.313-1.435-0.314-0.619-0.479-1.334-0.495-2.139v-0.479c0-0.837 0.153-1.573 0.46-2.213s0.746-1.133 1.318-1.479c0.57-0.347 1.224-0.521 1.954-0.521 0.723 0 1.365 0.173 1.934 0.517s1.007 0.833 1.321 1.468c0.313 0.635 0.474 1.362 0.478 2.184l-3e-3 0.389zm-2.092-0.359c0-0.848-0.142-1.491-0.425-1.931s-0.688-0.659-1.216-0.659c-1.031 0-1.576 0.773-1.637 2.32l-6e-3 0.627c0 0.836 0.141 1.479 0.416 1.928 0.277 0.449 0.689 0.674 1.236 0.674 0.52 0 0.92-0.221 1.201-0.662 0.279-0.439 0.424-1.074 0.428-1.902l3e-3 -0.395z"/>
	<path d="m272.55 88.572v5.584c0 0.633-0.135 1.183-0.404 1.646s-0.656 0.813-1.16 1.058-1.1 0.363-1.787 0.363c-1.037 0-1.855-0.271-2.453-0.811-0.6-0.539-0.902-1.275-0.914-2.215v-5.625h2.066v5.666c0.023 0.936 0.457 1.4 1.301 1.4 0.428 0 0.748-0.117 0.969-0.354 0.219-0.233 0.328-0.613 0.328-1.143v-5.571l2.054 2e-3z"/>
	<path d="m279.99 94.087h-1.111v3.018h-2.059v-8.531h3.357c1.012 0 1.803 0.227 2.373 0.673 0.57 0.449 0.854 1.083 0.854 1.902 0 0.594-0.118 1.085-0.358 1.478-0.24 0.39-0.616 0.704-1.128 0.946l1.779 3.444v0.088h-2.201l-1.506-3.018zm-1.113-1.582h1.301c0.391 0 0.685-0.104 0.882-0.311 0.197-0.205 0.296-0.492 0.296-0.858 0-0.368-0.1-0.657-0.299-0.866-0.199-0.21-0.492-0.314-0.879-0.314h-1.301v2.349z"/>
	<path d="m296.78 94.087h-1.111v3.018h-2.059v-8.531h3.357c1.012 0 1.803 0.227 2.373 0.673 0.57 0.449 0.854 1.083 0.854 1.902 0 0.594-0.12 1.085-0.358 1.478-0.24 0.39-0.616 0.704-1.128 0.946l1.779 3.444v0.088h-2.201l-1.506-3.018zm-1.113-1.582h1.301c0.391 0 0.685-0.104 0.882-0.311 0.197-0.205 0.296-0.492 0.296-0.858 0-0.368-0.1-0.657-0.299-0.866-0.199-0.21-0.492-0.314-0.879-0.314h-1.301v2.349z"/>
	<path d="m309.72 93.482h-3.234v2.039h3.82v1.582h-5.877v-8.531h5.889v1.588h-3.832v1.801h3.234v1.521z"/>
	<path d="m320.48 90.159h-2.561v6.943h-2.059v-6.943h-2.514v-1.588h7.131l3e-3 1.588z"/>
	<path d="m326.18 97.103h-2.051v-8.531h2.051v8.531z"/>
	<path d="m337.72 97.103h-2.045l-3.023-5.308v5.309h-2.057v-8.531h2.057l3.02 5.311v-5.311h2.051l-3e-3 8.53z"/>
	<path d="m346.85 95.511h-2.818l-0.492 1.594h-2.195l3.129-8.531h1.934l3.152 8.531h-2.209l-0.501-1.594zm-2.326-1.588h1.834l-0.92-2.959-0.914 2.959z"/>
	<path d="m357.57 94.837c0-0.303-0.104-0.535-0.319-0.703-0.213-0.168-0.587-0.342-1.12-0.521-0.535-0.179-0.975-0.354-1.313-0.521-1.104-0.543-1.658-1.289-1.658-2.238 0-0.473 0.14-0.89 0.413-1.251 0.275-0.361 0.665-0.643 1.169-0.844s1.07-0.304 1.699-0.304c0.613 0 1.163 0.109 1.649 0.328 0.484 0.221 0.862 0.53 1.134 0.937 0.27 0.403 0.403 0.866 0.403 1.386h-2.052c0-0.348-0.104-0.617-0.317-0.809-0.214-0.192-0.501-0.287-0.864-0.287-0.367 0-0.657 0.081-0.87 0.243-0.213 0.16-0.319 0.366-0.319 0.616 0 0.221 0.117 0.417 0.354 0.597 0.233 0.178 0.646 0.359 1.234 0.551 0.592 0.188 1.074 0.394 1.453 0.612 0.922 0.529 1.384 1.264 1.384 2.195 0 0.746-0.28 1.332-0.845 1.76-0.563 0.426-1.334 0.639-2.313 0.639-0.691 0-1.317-0.124-1.878-0.372-0.563-0.248-0.982-0.588-1.268-1.021-0.283-0.432-0.425-0.929-0.425-1.489h2.063c0 0.457 0.116 0.794 0.354 1.011s0.62 0.325 1.151 0.325c0.34 0 0.606-0.073 0.806-0.222 0.197-0.146 0.295-0.354 0.295-0.618z"/>
	<path d="m375.02 93.704h-3.316v3.398h-2.057v-8.531h5.707v1.588h-3.65v1.963h3.316v1.582z"/>
	<path d="m382.36 94.087h-1.111v3.018h-2.059v-8.531h3.357c1.012 0 1.803 0.227 2.373 0.673 0.568 0.449 0.854 1.083 0.854 1.902 0 0.594-0.12 1.085-0.358 1.478-0.24 0.39-0.616 0.704-1.128 0.946l1.779 3.444v0.088h-2.203l-1.504-3.018zm-1.111-1.582h1.301c0.391 0 0.685-0.104 0.882-0.311 0.197-0.205 0.296-0.492 0.296-0.858 0-0.368-0.1-0.657-0.299-0.866-0.199-0.21-0.492-0.314-0.879-0.314h-1.301v2.349z"/>
	<path d="m397.24 93.015c0 0.832-0.152 1.568-0.463 2.209-0.309 0.641-0.747 1.134-1.313 1.479-0.568 0.347-1.218 0.521-1.942 0.521s-1.371-0.167-1.934-0.501-1.001-0.813-1.315-1.435c-0.314-0.619-0.479-1.334-0.495-2.139v-0.479c0-0.837 0.153-1.573 0.46-2.213 0.308-0.64 0.746-1.133 1.318-1.479 0.571-0.347 1.224-0.521 1.954-0.521 0.723 0 1.365 0.173 1.934 0.517s1.007 0.833 1.321 1.468c0.313 0.635 0.474 1.362 0.478 2.184l-3e-3 0.389zm-2.092-0.359c0-0.848-0.142-1.491-0.425-1.931s-0.688-0.659-1.216-0.659c-1.031 0-1.576 0.773-1.637 2.32l-6e-3 0.627c0 0.836 0.141 1.479 0.416 1.928 0.277 0.449 0.689 0.674 1.236 0.674 0.52 0 0.92-0.221 1.201-0.662 0.279-0.439 0.424-1.074 0.428-1.902l3e-3 -0.395z"/>
	<path d="m403.99 88.572l1.904 5.938 1.896-5.938h2.707v8.531h-2.063v-1.992l0.199-4.078-2.063 6.07h-1.357l-2.068-6.076 0.199 4.084v1.992h-2.059v-8.531h2.705z"/>
	<path d="m427.12 90.159h-2.561v6.943h-2.059v-6.943h-2.514v-1.588h7.131l3e-3 1.588z"/>
	<path d="m437.74 97.103h-2.045v-3.563h-3.027v3.563h-2.059v-8.531h2.059v3.389h3.027v-3.389h2.045v8.531z"/>
	<path d="m447.32 93.482h-3.232v2.039h3.818v1.582h-5.877v-8.531h5.891v1.588h-3.832v1.801h3.232v1.521z"/>
	<path d="m457.72 97.103v-8.531h3.063c1.1 0 1.935 0.201 2.505 0.604 0.572 0.401 0.858 0.984 0.858 1.752 0 0.439-0.102 0.816-0.305 1.131-0.203 0.313-0.502 0.543-0.896 0.691 0.445 0.115 0.787 0.336 1.025 0.654 0.236 0.32 0.355 0.711 0.355 1.172 0 0.836-0.265 1.466-0.794 1.886-0.527 0.42-1.313 0.634-2.353 0.642l-3.458-1e-3zm2.057-4.973h1.072c0.449-4e-3 0.77-0.086 0.961-0.247 0.191-0.16 0.287-0.397 0.287-0.711 0-0.36-0.104-0.62-0.313-0.778-0.207-0.159-0.541-0.238-1.002-0.238h-1.008l3e-3 1.974zm0 1.346v2.045h1.348c0.371 0 0.656-0.085 0.855-0.255s0.299-0.409 0.299-0.718c0-0.711-0.354-1.068-1.061-1.072h-1.441z"/>
	<path d="m475.14 88.572v5.584c0 0.633-0.135 1.183-0.404 1.646s-0.656 0.813-1.16 1.058-1.1 0.363-1.787 0.363c-1.039 0-1.855-0.271-2.455-0.811-0.598-0.539-0.9-1.275-0.912-2.215v-5.625h2.066v5.666c0.023 0.936 0.457 1.4 1.301 1.4 0.428 0 0.748-0.117 0.969-0.354 0.219-0.233 0.326-0.613 0.326-1.143v-5.571l2.056 2e-3z"/>
	<path d="m482.58 94.087h-1.111v3.018h-2.059v-8.531h3.357c1.012 0 1.803 0.227 2.373 0.673 0.568 0.449 0.854 1.083 0.854 1.902 0 0.594-0.12 1.085-0.358 1.478-0.24 0.39-0.616 0.704-1.128 0.946l1.779 3.444v0.088h-2.202l-1.505-3.018zm-1.111-1.582h1.301c0.391 0 0.685-0.104 0.882-0.311 0.197-0.205 0.296-0.492 0.296-0.858 0-0.368-0.1-0.657-0.299-0.866-0.199-0.21-0.492-0.314-0.879-0.314h-1.301v2.349z"/>
	<path d="m497.35 97.103h-2.045l-3.023-5.309v5.309h-2.057v-8.531h2.057l3.02 5.311v-5.311h2.051l-3e-3 8.531z"/>
	<path d="m498.61 96.22c0-0.289 0.104-0.526 0.313-0.712 0.209-0.188 0.47-0.278 0.78-0.278 0.313 0 0.573 0.093 0.782 0.278s0.313 0.423 0.313 0.712-0.104 0.524-0.313 0.712c-0.209 0.186-0.47 0.278-0.782 0.278s-0.571-0.095-0.78-0.278c-0.209-0.187-0.313-0.423-0.313-0.712zm1.91-1.818h-1.6l-0.254-5.83h2.104l-0.25 5.83z"/>
</g>
</svg>
