<?xml version="1.0" encoding="UTF-8"?>
<!DOCTYPE svg  PUBLIC '-//W3C//DTD SVG 1.1//EN'  'http://www.w3.org/Graphics/SVG/1.1/DTD/svg11.dtd'>
<svg enable-background="new 0 0 516 114" version="1.1" viewBox="0 0 516 114" xml:space="preserve" xmlns="http://www.w3.org/2000/svg">
<path d="m136.1 61.5c0-0.8-0.399-1.4-1.2-1.9-0.8-0.5-2.3-0.899-4.6-1.399s-4.1-1.2-5.6-2-2.601-1.8-3.4-3c-0.8-1.2-1.2-2.5-1.2-4 0-2.7 1.101-4.9 3.3-6.6 2.2-1.701 5.1-2.601 8.6-2.601 3.8 0 6.899 0.9 9.2 2.6 2.3 1.7 3.5 4 3.5 6.8h-9.1c0-2.3-1.2-3.5-3.7-3.5-0.899 0-1.699 0.3-2.399 0.8-0.601 0.5-1 1.2-1 2s0.399 1.5 1.2 2c0.8 0.5 2 0.9 3.8 1.2 1.7 0.3 3.2 0.7 4.6 1.2 4.4 1.5 6.601 4.2 6.601 8.1 0 2.6-1.2 4.8-3.5 6.5-2.4 1.7-5.4 2.5-9.101 2.5-2.5 0-4.7-0.4-6.7-1.3s-3.5-2.101-4.6-3.601-1.6-3.1-1.6-4.8h8.5c0 1.3 0.5 2.3 1.3 2.9 0.899 0.6 2 0.899 3.3 0.899 1.2 0 2.2-0.2 2.8-0.8 0.699-0.498 0.999-1.198 0.999-1.998z" fill="#4B4B4B"/>
<path d="m160.6 33.4v7.2h4.8v6.3h-4.8v13.3c0 1.1 0.2 1.899 0.601 2.3 0.399 0.4 1.199 0.6 2.3 0.6 0.899 0 1.6-0.1 2.3-0.199v6.5c-1.6 0.5-3.3 0.8-5.1 0.8-3.101 0-5.4-0.7-6.9-2.2s-2.2-3.7-2.2-6.7v-14.401h-3.7v-6.3h3.7v-7.2h8.999z" fill="#4B4B4B"/>
<path d="m182.6 57 4.8-16.4h9.7l-11.8 33.9-0.5 1.2c-1.7 3.8-4.7 5.6-8.9 5.6-1.199 0-2.399-0.2-3.699-0.5v-6.3h1.199c1.301 0 2.2-0.2 2.9-0.6s1.2-1 1.5-2l0.7-1.9-10.1-29.3h9.7l4.5 16.3z" fill="#4B4B4B"/>
<path d="m209 69.7h-9.1v-41.2h9.1v41.2z" fill="#4B4B4B"/>
<path d="m226.9 70.2c-4.5 0-8.1-1.3-10.8-4-2.8-2.7-4.1-6.101-4.1-10.4v-0.8c0-3 0.6-5.6 1.6-7.9 1.101-2.3 2.7-4 4.8-5.3 2.101-1.2 4.601-1.9 7.5-1.9 4.101 0 7.301 1.3 9.7 3.8 2.4 2.5 3.5 6.1 3.5 10.6v3.5h-18c0.3 1.601 1 2.9 2.101 3.8 1.1 0.9 2.5 1.4 4.199 1.4 2.9 0 5.101-1 6.7-3l4.101 4.9c-1.101 1.6-2.7 2.8-4.801 3.699-1.9 1.201-4.2 1.601-6.5 1.601zm-1.1-23.1c-2.6 0-4.2 1.8-4.7 5.3h9.101v-0.7c0-1.4-0.301-2.6-1.101-3.4-0.7-0.8-1.8-1.2-3.3-1.2z" fill="#4B4B4B"/>
<path d="m261.6 55.7h-17v-7h17v7z" fill="#4B4B4B"/>
<path d="m266.2 33.1c0-1.3 0.5-2.3 1.399-3.2 0.9-0.8 2.101-1.2 3.601-1.2s2.699 0.4 3.6 1.2c0.9 0.8 1.4 1.9 1.4 3.2s-0.5 2.3-1.4 3.2c-0.9 0.8-2.1 1.2-3.6 1.2s-2.7-0.4-3.601-1.2c-0.999-0.8-1.399-1.9-1.399-3.2zm9.6 36.6h-9.1v-29.1h9.1v29.1z" fill="#4B4B4B"/>
<path d="m291.6 33.4v7.2h4.8v6.3h-4.8v13.3c0 1.1 0.2 1.899 0.601 2.3 0.399 0.4 1.199 0.6 2.3 0.6 0.899 0 1.6-0.1 2.3-0.199v6.5c-1.6 0.5-3.3 0.8-5.1 0.8-3.101 0-5.4-0.7-6.9-2.2s-2.2-3.7-2.2-6.7v-14.401h-3.7v-6.3h3.7v-7.2h8.999z" fill="#4B4B4B"/>
<path d="m334.2 33.8v7.2h4.801v6.3h-4.801v13.3c0 1.101 0.2 1.9 0.601 2.301 0.399 0.399 1.2 0.6 2.3 0.6 0.9 0 1.6-0.1 2.3-0.2v6.5c-1.6 0.5-3.3 0.8-5.1 0.8-3.101 0-5.4-0.699-6.9-2.199s-2.2-3.7-2.2-6.7v-14.402h-3.7v-6.3h3.7v-7.2h8.999z" fill="#6593D9"/>
<path d="m351.5 44.1c1.899-2.4 4.399-3.7 7.399-3.7 3.2 0 5.601 0.9 7.3 2.9 1.601 1.9 2.5 4.7 2.5 8.4v18.3h-9.1v-18c0-1.5-0.3-2.7-0.9-3.4s-1.7-1.1-3.2-1.1c-1.899 0-3.199 0.6-3.899 1.8v20.8h-9.101v-41.3h9.101l-0.1 15.3z" fill="#6593D9"/>
<path d="m386.6 70.6c-4.5 0-8.1-1.3-10.8-4-2.8-2.699-4.101-6.1-4.101-10.399v-0.8c0-3 0.601-5.6 1.601-7.9 1.1-2.3 2.7-4 4.8-5.3 2.1-1.2 4.6-1.9 7.5-1.9 4.1 0 7.3 1.3 9.7 3.8 2.399 2.5 3.5 6.1 3.5 10.6v3.5h-18c0.3 1.6 1 2.899 2.1 3.8 1.101 0.9 2.5 1.4 4.2 1.4 2.9 0 5.1-1 6.7-3l4.1 4.899c-1.1 1.601-2.7 2.8-4.8 3.7-1.901 1.2-4.1 1.6-6.5 1.6zm-1-23.1c-2.6 0-4.2 1.8-4.7 5.3h9.1v-0.7c0-1.4-0.301-2.6-1.101-3.4-0.799-0.8-1.899-1.2-3.299-1.2z" fill="#6593D9"/>
<path d="m410.3 41 0.3 3.4c2.1-2.6 4.8-3.9 8.3-3.9 3.7 0 6.1 1.5 7.4 4.4 2-2.9 4.8-4.4 8.5-4.4 5.899 0 8.899 3.6 9.1 10.7v18.9h-9.1v-18.3c0-1.5-0.301-2.6-0.801-3.2-0.5-0.7-1.399-1-2.699-1-1.801 0-3.101 0.8-4 2.4v20.1h-9.101v-18.3c0-1.5-0.2-2.6-0.7-3.3s-1.399-1-2.8-1c-1.7 0-3.1 0.8-4 2.4v20.2h-9.1v-29.1h8.701z" fill="#6593D9"/>
<path d="m461.9 70.6c-4.5 0-8.1-1.3-10.8-4-2.8-2.7-4.1-6.1-4.1-10.4v-0.8c0-3 0.6-5.6 1.699-7.9 1.101-2.3 2.7-4 4.801-5.3 2.1-1.2 4.6-1.9 7.5-1.9 4.1 0 7.3 1.3 9.699 3.8 2.4 2.5 3.5 6.1 3.5 10.6v3.5h-18c0.301 1.6 1 2.899 2.101 3.8 1.1 0.9 2.5 1.4 4.2 1.4 2.899 0 5.1-1 6.699-3l4.101 4.9c-1.101 1.601-2.7 2.8-4.8 3.7-2 1.2-4.2 1.6-6.6 1.6zm-1-23.1c-2.6 0-4.2 1.8-4.7 5.3h9.101v-0.7c0-1.4-0.3-2.6-1.101-3.4-0.8-0.8-1.9-1.2-3.3-1.2z" fill="#6593D9"/>
<path d="m494 61.9c0-0.801-0.4-1.4-1.2-1.9s-2.3-0.9-4.601-1.4c-2.3-0.5-4.1-1.2-5.6-2s-2.601-1.8-3.4-3c-0.8-1.2-1.2-2.5-1.2-4 0-2.7 1.101-4.9 3.301-6.6 2.199-1.7 5.1-2.6 8.6-2.6 3.8 0 6.9 0.9 9.2 2.6s3.5 4 3.5 6.8h-9.101c0-2.3-1.199-3.5-3.699-3.5-0.9 0-1.7 0.3-2.4 0.8-0.6 0.5-1 1.2-1 2s0.4 1.5 1.2 2 2 0.9 3.8 1.2c1.7 0.3 3.2 0.7 4.6 1.2 4.4 1.5 6.601 4.2 6.601 8.1 0 2.7-1.2 4.801-3.5 6.5-2.4 1.7-5.4 2.5-9.101 2.5-2.5 0-4.699-0.399-6.699-1.3-2-0.899-3.5-2.1-4.601-3.6-1.1-1.5-1.6-3.2-1.6-4.9h8.5c0 1.3 0.5 2.3 1.3 2.9 0.9 0.6 2 0.899 3.3 0.899 1.2 0 2.2-0.199 2.8-0.8 0.699-0.399 1-1.099 1-1.899z" fill="#6593D9"/>
<path d="m198.2 94.8c0-0.3-0.101-0.5-0.301-0.7-0.199-0.199-0.6-0.3-1.1-0.5-0.5-0.199-1-0.399-1.3-0.5-1.101-0.5-1.7-1.3-1.7-2.199 0-0.5 0.1-0.9 0.4-1.2 0.3-0.4 0.699-0.601 1.199-0.8 0.5-0.2 1.101-0.301 1.7-0.301 0.601 0 1.2 0.101 1.601 0.301 0.5 0.199 0.899 0.5 1.1 0.899 0.3 0.4 0.4 0.9 0.4 1.4h-2.099c0-0.3-0.1-0.601-0.3-0.8-0.2-0.2-0.5-0.301-0.9-0.301-0.399 0-0.699 0.101-0.899 0.2-0.2 0.2-0.3 0.4-0.3 0.601 0 0.199 0.1 0.399 0.399 0.6 0.2 0.2 0.601 0.4 1.2 0.6 0.6 0.2 1.1 0.4 1.5 0.601 0.9 0.5 1.4 1.3 1.4 2.2 0 0.699-0.301 1.3-0.801 1.8-0.6 0.399-1.3 0.6-2.3 0.6-0.7 0-1.3-0.1-1.899-0.399-0.601-0.2-1-0.601-1.301-1-0.3-0.4-0.399-0.9-0.399-1.5h2.1c0 0.5 0.101 0.8 0.4 1 0.2 0.199 0.6 0.3 1.2 0.3 0.3 0 0.6-0.101 0.8-0.2 0.1-0.202 0.2-0.402 0.2-0.702z" fill="#ccc"/>
<path d="m209.1 95.5h-2.8l-0.5 1.6h-2.2l3.101-8.5h1.899l3.101 8.5h-2.2l-0.401-1.6zm-2.3-1.6h1.8l-0.899-3-0.901 3z" fill="#ccc"/>
<path d="m218.8 94.8 1.7-6.2h2.3l-2.9 8.5h-2.2l-2.801-8.5h2.301l1.6 6.2z" fill="#ccc"/>
<path d="m231.7 93.5h-3.2v2h3.8v1.6h-5.9v-8.5h5.9v1.6h-3.8v1.8h3.2v1.5z" fill="#ccc"/>
<path d="m245.2 92.3 1.6-3.7h2.2l-2.7 5.5v3.1h-2.1v-3.1l-2.7-5.5h2.2l1.5 3.7z" fill="#ccc"/>
<path d="m259.8 93c0 0.8-0.2 1.6-0.5 2.2s-0.7 1.1-1.3 1.5c-0.601 0.3-1.2 0.5-1.9 0.5s-1.4-0.2-1.9-0.5c-0.601-0.3-1-0.8-1.301-1.4-0.3-0.6-0.5-1.3-0.5-2.1v-0.5c0-0.8 0.2-1.601 0.5-2.2 0.301-0.6 0.7-1.1 1.301-1.5 0.6-0.3 1.199-0.5 2-0.5 0.699 0 1.399 0.2 1.899 0.5 0.601 0.3 1 0.8 1.3 1.5 0.301 0.6 0.5 1.4 0.5 2.2l-0.099 0.3zm-2.1-0.3c0-0.8-0.101-1.5-0.4-1.9-0.3-0.399-0.7-0.7-1.2-0.7-1 0-1.6 0.801-1.6 2.301v0.599c0 0.8 0.1 1.5 0.399 1.9 0.301 0.399 0.7 0.699 1.2 0.699s0.9-0.199 1.2-0.699c0.3-0.4 0.4-1.101 0.4-1.9v-0.3h1e-3z" fill="#ccc"/>
<path d="m270.5 88.6v5.6c0 0.6-0.101 1.2-0.4 1.6-0.3 0.5-0.7 0.8-1.2 1.101-0.5 0.199-1.1 0.399-1.8 0.399-1 0-1.899-0.3-2.5-0.8-0.6-0.5-0.899-1.3-0.899-2.2v-5.6h2.1v5.7c0 0.899 0.5 1.399 1.3 1.399 0.4 0 0.7-0.1 1-0.399 0.2-0.2 0.3-0.601 0.3-1.101v-5.6l2.099-0.099z" fill="#ccc"/>
<path d="m278 94.1h-1.1v3h-2.1v-8.5h3.4c1 0 1.8 0.2 2.399 0.7 0.601 0.4 0.9 1.101 0.9 1.9 0 0.6-0.101 1.1-0.4 1.5-0.2 0.399-0.6 0.7-1.1 0.899l1.8 3.4v0.1h-2.2l-1.599-2.999zm-1.1-1.6h1.301c0.399 0 0.699-0.1 0.899-0.3s0.3-0.5 0.3-0.9c0-0.399-0.1-0.7-0.3-0.899-0.2-0.2-0.5-0.301-0.899-0.301h-1.301v2.4z" fill="#ccc"/>
<path d="m294.8 94.1h-1.101v3h-2.1v-8.5h3.399c1 0 1.801 0.2 2.4 0.7 0.6 0.4 0.9 1.101 0.9 1.9 0 0.6-0.101 1.1-0.4 1.5-0.2 0.399-0.6 0.7-1.1 0.899l1.8 3.4v0.1h-2.2l-1.598-2.999zm-1.101-1.6h1.301c0.399 0 0.699-0.1 0.899-0.3s0.3-0.5 0.3-0.9c0-0.399-0.1-0.7-0.3-0.899-0.2-0.2-0.5-0.301-0.899-0.301h-1.301v2.4z" fill="#ccc"/>
<path d="m307.7 93.5h-3.199v2h3.8v1.6h-5.9v-8.5h5.9v1.6h-3.8v1.8h3.199v1.5z" fill="#ccc"/>
<path d="m318.5 90.2h-2.6v6.9h-2.1v-6.9h-2.5v-1.6h7.1l0.1 1.6z" fill="#ccc"/>
<path d="m324.2 97.1h-2.1v-8.5h2.1v8.5z" fill="#ccc"/>
<path d="m335.7 97.1h-2l-3-5.3v5.3h-2.1v-8.5h2.1l3 5.301v-5.301h2.101l-0.101 8.5z" fill="#ccc"/>
<path d="m344.8 95.5h-2.8l-0.5 1.6h-2.2l3.1-8.5h1.9l3.2 8.5h-2.2l-0.5-1.6zm-2.3-1.6h1.8l-0.9-3-0.9 3z" fill="#ccc"/>
<path d="m355.6 94.8c0-0.3-0.1-0.5-0.3-0.7-0.2-0.199-0.601-0.3-1.101-0.5-0.5-0.199-1-0.399-1.3-0.5-1.1-0.5-1.7-1.3-1.7-2.199 0-0.5 0.101-0.9 0.4-1.2 0.3-0.4 0.7-0.601 1.2-0.8 0.5-0.2 1.1-0.301 1.7-0.301s1.199 0.101 1.6 0.301c0.5 0.199 0.9 0.5 1.1 0.899 0.301 0.4 0.4 0.9 0.4 1.4h-2.1c0-0.3-0.101-0.601-0.301-0.8-0.199-0.2-0.5-0.301-0.899-0.301-0.4 0-0.7 0.101-0.9 0.2-0.2 0.2-0.3 0.4-0.3 0.601 0 0.199 0.1 0.399 0.4 0.6 0.199 0.2 0.6 0.4 1.199 0.6 0.601 0.2 1.101 0.4 1.5 0.601 0.9 0.5 1.4 1.3 1.4 2.2 0 0.699-0.3 1.3-0.8 1.8-0.601 0.399-1.3 0.6-2.3 0.6-0.7 0-1.301-0.1-1.9-0.399-0.6-0.2-1-0.601-1.3-1-0.3-0.4-0.4-0.9-0.4-1.5h2.102c0 0.5 0.1 0.8 0.399 1 0.3 0.199 0.601 0.3 1.2 0.3 0.3 0 0.6-0.101 0.8-0.2 0.101-0.202 0.201-0.402 0.201-0.702z" fill="#ccc"/>
<path d="m373 93.7h-3.301v3.4h-2.1v-8.5h5.7v1.6h-3.601v2h3.302v1.5z" fill="#ccc"/>
<path d="m380.4 94.1h-1.1v3h-2.101v-8.5h3.4c1 0 1.8 0.2 2.399 0.7 0.601 0.4 0.9 1.101 0.9 1.9 0 0.6-0.1 1.1-0.4 1.5-0.199 0.399-0.6 0.7-1.1 0.899l1.8 3.4v0.1h-2.2l-1.598-2.999zm-1.1-1.6h1.3c0.399 0 0.7-0.1 0.899-0.3 0.2-0.2 0.301-0.5 0.301-0.9 0-0.399-0.101-0.7-0.301-0.899-0.199-0.2-0.5-0.301-0.899-0.301h-1.3v2.4z" fill="#ccc"/>
<path d="m395.2 93c0 0.8-0.199 1.6-0.5 2.2-0.3 0.6-0.699 1.1-1.3 1.5-0.6 0.3-1.2 0.5-1.899 0.5-0.7 0-1.4-0.2-1.9-0.5-0.6-0.3-1-0.8-1.3-1.4s-0.5-1.3-0.5-2.1v-0.5c0-0.8 0.2-1.601 0.5-2.2s0.7-1.1 1.3-1.5c0.6-0.3 1.2-0.5 2-0.5 0.7 0 1.4 0.2 1.9 0.5 0.6 0.3 1 0.8 1.3 1.5 0.3 0.6 0.5 1.4 0.5 2.2l-0.101 0.3zm-2.099-0.3c0-0.8-0.1-1.5-0.4-1.9-0.3-0.399-0.699-0.7-1.199-0.7-1 0-1.601 0.801-1.601 2.301v0.599c0 0.8 0.101 1.5 0.4 1.9 0.3 0.399 0.7 0.699 1.2 0.699s0.899-0.199 1.199-0.699c0.301-0.4 0.4-1.101 0.4-1.9v-0.3z" fill="#ccc"/>
<path d="m402 88.6 1.899 5.9 1.9-5.9h2.7v8.5h-2.099v-2l0.2-4.1-2.1 6.1h-1.4l-2.1-6.1 0.199 4.1v2h-2.1v-8.5h2.901z" fill="#ccc"/>
<path d="m425.1 90.2h-2.6v6.9h-2.1v-6.9h-2.5v-1.6h7.1l0.1 1.6z" fill="#ccc"/>
<path d="m435.7 97.1h-2v-3.6h-3v3.6h-2.1v-8.5h2.1v3.4h3v-3.4h2v8.5z" fill="#ccc"/>
<path d="m445.3 93.5h-3.2v2h3.8v1.6h-5.9v-8.5h5.9v1.6h-3.8v1.8h3.2v1.5z" fill="#ccc"/>
<path d="m455.7 97.1v-8.5h3.101c1.1 0 1.899 0.2 2.5 0.601 0.6 0.399 0.899 1 0.899 1.8 0 0.4-0.1 0.8-0.3 1.1-0.2 0.301-0.5 0.5-0.899 0.7 0.399 0.101 0.8 0.3 1 0.7 0.199 0.3 0.399 0.7 0.399 1.2 0 0.8-0.3 1.5-0.8 1.899-0.5 0.4-1.3 0.601-2.4 0.601h-3.5v-0.101zm2.101-5h1.1c0.4 0 0.8-0.1 1-0.199 0.2-0.2 0.3-0.4 0.3-0.7 0-0.4-0.1-0.601-0.3-0.8-0.2-0.2-0.5-0.2-1-0.2h-1l-0.1 1.899zm0 1.4v2h1.3c0.399 0 0.7-0.1 0.899-0.3 0.2-0.2 0.301-0.4 0.301-0.7 0-0.7-0.4-1.1-1.101-1.1h-1.399v0.1z" fill="#ccc"/>
<path d="m473.1 88.6v5.6c0 0.6-0.1 1.2-0.4 1.6-0.3 0.5-0.699 0.8-1.199 1.101-0.501 0.199-1.101 0.399-1.802 0.399-1 0-1.899-0.3-2.5-0.8-0.6-0.5-0.899-1.3-0.899-2.2v-5.6h2.1v5.7c0 0.899 0.5 1.399 1.3 1.399 0.4 0 0.7-0.1 1-0.399 0.2-0.2 0.3-0.6 0.3-1.1v-5.6l2.1-0.1z" fill="#ccc"/>
<path d="m480.6 94.1h-1.1v3h-2.1v-8.5h3.4c1 0 1.8 0.2 2.399 0.7 0.601 0.4 0.9 1.101 0.9 1.9 0 0.6-0.101 1.1-0.4 1.5-0.2 0.399-0.6 0.7-1.1 0.899l1.8 3.4v0.1h-2.2l-1.599-2.999zm-1.1-1.6h1.3c0.399 0 0.7-0.1 0.899-0.3 0.2-0.2 0.3-0.5 0.3-0.9 0-0.399-0.1-0.7-0.3-0.899-0.2-0.2-0.5-0.301-0.899-0.301h-1.3v2.4z" fill="#ccc"/>
<path d="m495.3 97.1h-2l-3-5.3v5.3h-2.101v-8.5h2.101l3 5.301v-5.301h2.1l-0.1 8.5z" fill="#ccc"/>
<path d="m500.6 96.2c0-0.3 0.1-0.5 0.3-0.7s0.5-0.3 0.8-0.3 0.601 0.1 0.8 0.3c0.2 0.2 0.301 0.4 0.301 0.7s-0.101 0.5-0.301 0.7c-0.199 0.199-0.5 0.3-0.8 0.3s-0.6-0.101-0.8-0.3c-0.201-0.2-0.3-0.4-0.3-0.7zm1.9-1.8h-1.6l-0.3-5.801h2.1l-0.2 5.801z" fill="#ccc"/>
<rect x="7.8" y="5.9" width="101.5" height="101.5" display="none" fill="#555753"/>
<g opacity=".4">
	<polygon points="41.3 74.9 67.4 33.7 72.4 39.7 47.3 81.9"/>
	<polygon points="43.9 29 19 58.2 43.9 86.3 39.6 93.4 11.7 58.2 39.3 22"/>
	<polygon points="74.5 22 102.1 58.2 74.3 93.4 70 86.3 94.9 58.2 70 29"/>
</g>
<polygon points="43.3 73.9 69.4 32.7 74.4 38.7 49.3 80.9" fill="#4B4B4B"/>
<polygon points="45.9 28 21 57.2 45.9 85.3 41.6 92.4 13.7 57.2 41.4 21" fill="#4B4B4B"/>
<polygon points="76.5 21 104.2 57.2 76.3 92.4 72 85.3 96.9 57.2 72 28" fill="#4B4B4B"/>
</svg>
